/* XPM */
static char *window_0[] = {
/* columns rows colors chars-per-pixel */
"32 32 198 2 ",
"   c #747474",
".  c #7E7E7E",
"X  c #A5FF4E",
"o  c #7E8084",
"O  c #818183",
"+  c #838383",
"@  c #818285",
"#  c gray52",
"$  c #848487",
"%  c #868686",
"&  c #848589",
"*  c #87878B",
"=  c #87888D",
"-  c #888888",
";  c #898B8F",
":  c #8A8B8F",
">  c #898C8F",
",  c #898C91",
"<  c #8A8C90",
"1  c #8B8E92",
"2  c #8C8F92",
"3  c #8C8F93",
"4  c #8D9092",
"5  c #8D9093",
"6  c #8E9094",
"7  c #8F9095",
"8  c #8F9195",
"9  c #8F9295",
"0  c #909094",
"q  c #909195",
"w  c #919295",
"e  c #909196",
"r  c #909296",
"t  c #929498",
"y  c #939599",
"u  c #97999D",
"i  c #98999E",
"p  c #989B9E",
"a  c #999B9E",
"s  c #999A9F",
"d  c gray61",
"f  c gray62",
"g  c #9F9F9F",
"h  c #9B9CA1",
"j  c #9C9DA1",
"k  c #9D9EA2",
"l  c #9FA1A5",
"z  c #A0A0A2",
"x  c #A0A1A2",
"c  c #A1A1A2",
"v  c #A1A2A3",
"b  c #A2A2A3",
"n  c #A0A0A4",
"m  c #A0A2A5",
"M  c #A1A1A6",
"N  c #A2A3A7",
"B  c #A4A4A4",
"V  c #A5A5A5",
"C  c #A4A4A6",
"Z  c gray65",
"A  c #A7A7A7",
"S  c #A3A5A9",
"D  c #A4A5A8",
"F  c #A5A6AA",
"G  c #A6A8AB",
"H  c #A7A8AB",
"J  c #A7A9AC",
"K  c gray66",
"L  c #AAAAAA",
"P  c gray67",
"I  c #A8A9AC",
"U  c #A8A9AD",
"Y  c #A8AAAC",
"T  c #A9AAAC",
"R  c #A9AAAD",
"E  c #A9AAAE",
"W  c #AAABAE",
"Q  c #AAABAF",
"!  c #ABACAE",
"~  c #ABACAF",
"^  c #ACACAC",
"/  c gray68",
"(  c #ACADAF",
")  c #AEAEAE",
"_  c #AFAFAF",
"`  c #ABACB0",
"'  c #ABADB0",
"]  c #ACADB0",
"[  c #ACADB1",
"{  c #ACAEB1",
"}  c #ADAEB1",
"|  c #ADAEB2",
" . c #ADAFB2",
".. c #AEAFB2",
"X. c #AEAFB3",
"o. c #AEB0B3",
"O. c #AFB0B4",
"+. c #AFB1B4",
"@. c gray69",
"#. c #B1B1B1",
"$. c #B2B2B2",
"%. c gray70",
"&. c #B0B1B5",
"*. c #B0B2B5",
"=. c #B1B2B6",
"-. c #B1B3B6",
";. c #B2B3B6",
":. c #B2B3B7",
">. c #B2B4B7",
",. c #B3B4B7",
"<. c #B3B5B7",
"1. c #B4B4B4",
"2. c gray71",
"3. c #B4B5B7",
"4. c #B6B6B6",
"5. c #B7B7B7",
"6. c #B3B4B8",
"7. c #B3B5B8",
"8. c #B4B5B8",
"9. c #B4B5B9",
"0. c #B4B6B8",
"q. c #B4B6B9",
"w. c #B5B6B9",
"e. c #B6B7B9",
"r. c #B5B7BA",
"t. c #B6B7BA",
"y. c #B7B8BA",
"u. c #B7B8BB",
"i. c gray72",
"p. c #B9B9B9",
"a. c #B8B9BB",
"s. c gray73",
"d. c #BBBBBB",
"f. c #B8B9BC",
"g. c #B9BABD",
"h. c #B9BBBE",
"j. c #BABBBE",
"k. c #BABCBE",
"l. c #BBBDBF",
"z. c #BCBCBC",
"x. c gray74",
"c. c #BDBDBE",
"v. c #BBBCC0",
"b. c #BEBEC0",
"n. c #BEBFC0",
"m. c #BFBFC0",
"M. c #BFBFC1",
"N. c #BDBEC2",
"B. c #BEBEC2",
"V. c #BEBFC2",
"C. c #BFC0C1",
"Z. c #BFC0C3",
"A. c #C0C0C0",
"S. c #C1C1C1",
"D. c #C0C0C2",
"F. c gray76",
"G. c #C3C3C3",
"H. c #C0C1C4",
"J. c #C2C3C6",
"K. c #C2C4C6",
"L. c #C3C4C6",
"P. c #C3C4C7",
"I. c gray77",
"U. c #C5C5C5",
"Y. c #C6C6C6",
"T. c #C6C6C7",
"R. c gray78",
"E. c #C5C5C9",
"W. c #C5C6C8",
"Q. c #C5C6C9",
"!. c #C5C7C9",
"~. c #C6C8C9",
"^. c #C7C8CB",
"/. c #C8C8C8",
"(. c #C8C9CB",
"). c #C8C9CC",
"_. c #C9C9CC",
"`. c #CACBCE",
"'. c #CBCBCF",
"]. c #CBCCCF",
"[. c #CBCDCF",
"{. c #CDCDCD",
"}. c #CCCDCF",
"|. c gray81",
" X c #CCCDD0",
".X c #CDCED0",
"XX c #CDCFD0",
"oX c #CECED1",
"OX c #CECFD1",
"+X c #CED0D1",
"@X c #D0D0D0",
"#X c gray82",
"$X c #D0D0D3",
"%X c #D2D2D2",
"&X c gray83",
"*X c #D5D5D5",
"=X c #E0FFC2",
"-X c None",
/* pixels */
"d.d.%.1.d.d.d.d.d.d.1.d.d.5 i i i e w < z.d.1.%.d.d.1.1.%.d.1._ ",
"1.d B A P ) ) %.%.%.o * 2 5 -X-X-X-X-XB k i %.%.%.{ @.%.5.1.1.) ",
"1.B X I.G.I.G.I.@ < 5 -X-X-X-X-X-X-X-X-X-Xn S n I.z.G.z.I.G.i.P ",
"%.X =XX #X*X*X@ 5 -X-X-X-X-X-X-X-X-X-X-X-X-X-X-Xi G.I.#X{.G.1.B ",
"^ F X #X*X= * $ -X-X-X-X-X-X-X-X-X-X-X-X-X-X-X-X-XF N OX|./.1.A ",
"1.B d.G.: : ! c -X-X-X-X-X-X-X-X-X-X-X-X-X-X-X-X-X-X{ ' &XI.1.A ",
"@.A d.G.< { T c -X-X-X-X-X-X-X-X-X-X-X-X-X-X-X-X-X-X-XT *XR.d.B ",
"%.B d.5 < { ' c -X-X-X-X-X-X-X-X-X-X-X-X-X-X-X-X-X-X-X%.z.I.i.B ",
"i.L 2 2 { { c -X-X-X-X-X-X-X-X-X-X-X-X-X-X-X-X-X-X-X-Xm.t.d.&.B ",
"d.L 2 o.+.` n -X-X-X-X-X-X-X-X-X-X-X-X-X-X-X-X-X-X-X-XM.u.d.%.c ",
"d.e e X.{ { c -X-X-X-X-X-X-X-X-X-X-X-X-X-X-X-X-X-X-X-XM.u.7.l.d ",
"d.e &.&.+.! B -X-X-X-X-X-X-X-X-X-X-X-X-X-X-X-X-X-X-X-XC.u.7.m.d ",
"d.5 &.&.X.{ n -X-X-X-X-X-X-X-X-X-X-X-X-X-X-X-X-X-X-X-XC.7.7.l.d ",
"2 5 { X.P z -X-X-X-X-X-X-X-X-X-X-X-X-X-X-X-X-X-X-X-Xm.7.7.&.&.C.",
"e { { { T n -X-X-X-X-X-X-X-X-X-X-X-X-X-X-X-X-X-X-X-Xm.u.7.:.+.G.",
"5 ` { { T n -X-X-X-X-X-X-X-X-X-X-X-X-X-X-X-X-X-X-X-Xm.r.:.+.+.Z.",
"e T { { T c -X-X-X-X-X-X-X-X-X-X-X-X-X-X-X-X-X-X-X-Xm.t.7.+.:.P.",
"e ! { { T c -X-X-X-X-X-X-X-X-X-X-X-X-X-X-X-X-X-X-X-Xm.r.+.&.+.!.",
"t ' &.o.+.n -X-X-X-X-X-X-X-X-X-X-X-X-X-X-X-X-X-X-X-Xm.:.X.+.:.!.",
"y { { o.c -X-X-X-X-X-X-X-X-X-X-X-X-X-X-X-X-X-X-X-Xm.7.+.&.+.+.^.",
"h ` ' J c -X-X-X-X-X-X-X-X-X-X-X-X-X-X-X-X-X-X-X-Xm.7.&.&.{ &.!.",
"i J F F c -X-X-X-X-X-X-X-X-X-X-X-X-X-X-X-X-X-X-X-XC.u.7.+.+.X.).",
"h J L G c -X-X-X-X-X-X-X-X-X-X-X-X-X-X-X-X-X-X-X-Xm.d.:.>.>.&.).",
"h T T ' n -X-X-X-X-X-X-X-X-X-X-X-X-X-X-X-X-X-X-X-XG.t.>.&.&.&.OX",
"l { { c -X-X-X-X-X-X-X-X-X-X-X-X-X-X-X-X-X-X-X-Xm.t.7.+.X.+.:. X",
"l +.{ B -X-X-X-X-X-X-X-X-X-X-X-X-X-X-X-X-X-X-X-Xm.t.:.&.+.&.`. X",
"d.J { n -X-X-X-X-X-X-X-X-X-X-X-X-X-X-X-X-X-X-X-Xm.7.7.:.>.7. X$ ",
"1.T T n -X-X-X-X-X-X-X-X-X-X-X-X-X-X-X-X-X-X-X-Xm.t.7.:.>.{.+X$ ",
"d.%.L z -X-X-X-X-X-X-X-X-X-X-X-X-X-X-X-X-X-X-X-XC.t.7.>.`.+X%.$ ",
"d.%.d.{ &.-X-X-X-X-X-X-X-X-X-X-X-X-X-X-X-X-X-Xm.>.u.OX{.OXI.) + ",
"1.%.) %.t.d.-X-X-X-X-X-X-X-X-X-X-X-X-X-X-X-X-Xm.u.OX|.$._ ) A . ",
"%.P B L T B m.l.v.V.V.d.y.!.!.P.P.G.G.!.).^.^.).OX+X$ + + - +   "
};
