/* XPM */
static char *window_1[] = {
/* columns rows colors chars-per-pixel */
"32 32 90 1 ",
"  c #747474",
". c #7E7E7E",
"X c #FF3D4E",
"o c #838383",
"O c #868686",
"+ c #888888",
"@ c #8A8B8D",
"# c #8B8E8F",
"$ c #8B8C92",
"% c #8E8F93",
"& c #8D9091",
"* c #8F9294",
"= c #909195",
"- c #939396",
"; c #929497",
": c #939697",
"> c #939499",
", c #94979A",
"< c #96989D",
"1 c #99999D",
"2 c #989B9E",
"3 c gray61",
"4 c #9A9CA0",
"5 c #9C9EA1",
"6 c #9F9FA4",
"7 c #A2A3A6",
"8 c #A4A4A4",
"9 c #A5A5A5",
"0 c #A7A7A7",
"q c #A3A5A9",
"w c #A6A6A9",
"e c #A7A8AA",
"r c #A7A8AC",
"t c gray66",
"y c #A8A8AA",
"u c #A9A9AB",
"i c gray67",
"p c #A9ABAE",
"a c #AAABAE",
"s c #AAACAF",
"d c #AEAEAE",
"f c #AFAFAF",
"g c #ABACB0",
"h c #ACADB1",
"j c #ADAFB2",
"k c #AEB0B3",
"l c #AFB1B4",
"z c gray69",
"x c gray70",
"c c #B0B0B4",
"v c #B1B3B6",
"b c #B2B3B7",
"n c #B4B4B4",
"m c #B7B7B7",
"M c #B3B4B8",
"N c #B4B5B9",
"B c #B4B6B9",
"V c #B7B7BA",
"C c #B7B8BA",
"Z c gray72",
"A c #B8B9BB",
"S c #BBBBBB",
"D c #BABBBC",
"F c #BBBDBE",
"G c #BCBCBC",
"H c #FF9CA4",
"J c #BBBCC0",
"K c #BDBEC2",
"L c #BEBFC2",
"P c #C0C0C0",
"I c #C3C3C3",
"U c #C0C1C4",
"Y c #C2C4C6",
"T c gray77",
"R c gray78",
"E c #C5C6C9",
"W c #C7C8CA",
"Q c #C7C8CB",
"! c #C8C8C8",
"~ c #CACBCE",
"^ c #CBCDCF",
"/ c #CDCDCD",
"( c #CCCCD0",
") c #CECFD0",
"_ c #CFD0D2",
"` c #D0D0D0",
"' c gray82",
"] c #D2D2D2",
"[ c gray83",
"{ c #D5D5D5",
/* pixels */
"SSxnSSSSSSnSS<41<*,nDSnxSSnnxSnf",
"n38eiddxnn#&::nMbjpwr7xxdjdbmnnd",
"n8XTITIT,*:bbbblbjiSGrpjTGISIISi",
"xXHX'{{,,bMBgkkkjiNbnbbNiII'/Ix8",
"d8X'{1,*MBbblbbjdySbbbbsbsk'`!ni",
"n8SI1>bMbMbbbbbjpwSNbjkbbMkM[In8",
"x8SI=NNMbbbMbbljpiNVjjbkbNxg{RS8",
"x8S=,bbbbNMlbbljaaSNbcbbbbbbSTm8",
"Si@>jbjbbNbblbjjeCAllBkbbkbbbKn8",
"nd$gbbbbbNbkbjjpeSABbblbbbjbbSn8",
"S$%jcbbbbbbbbjgjsCCbbBbbkbjblbC3",
"S@jbjjjbbkbbbbjpeSCBblkbbbbjbbL3",
"M%jjjjjckkjkbkjjeSbMkklbbbkkbbF3",
"=*bjbjjbkbjkjkpwCnClbkkbkbbblBbU",
",jljjjjjkgkggjpiCAMlbbbbbkbBbBbU",
",jjjjjjjsjjsjgwiCCMlkkbkkbBbbBlL",
">ljjjjcjaggajjeiSCllklBbkkBBlBlY",
"4jbjjlcjjgagpjpwCClMbBbkkbbbbklW",
"4ljgjjjjggpabjjiAMllBbblBlBblbMW",
"5lgjjbgggjpjjjwSMlllkbkkkBbbBkbW",
"4ljjlljjgbgggreNblbkkkbkbblkkkkW",
"4lgjpjjjcgjyeqeFABkkkblkklMksek^",
"qjggjggjgjpweeeCFbbbkBkbbkgkgsbE",
"qbjggggjjjjrssiSMbbbblBbbgkkkkb(",
"qjlgjgelblkgkeCCMkkkbbbMlgkklkg(",
"6blxgggklggkgiSCbblbkkblllbkkb^W",
"DsbbklllbkkkkiCMbMbbkblblbklbb^+",
"bpxbllllkbkkswMCMMlblkbbllklb^_O",
"GxbklkllMlMkkwFMBbkblMbblbln)_bO",
"SxGxMlbblbMk8SbCMlkkbbbbbM_''Tdo",
"xxdzxFxbbkMgsSMMbkklbbjjb/)xdd0.",
"xi8ip7NCKKKSCIEWUULE~E~^^WOoo+o "
};
