/* XPM */
static char *cube[] = {
/* columns rows colors chars-per-pixel */
"32 32 6 1 ",
"  c #D8727B",
". c #A2AEB0",
"X c #D1B1B4",
"o c #B6C2C5",
"O c gray82",
"+ c None",
/* pixels */
"++++++++++++++++++++++++++++++++",
"++++++++++++++++++++++++++++++++",
"++++++++++++++++++++++++++++++++",
"++++++++++++++++++++++++++++++++",
"++++++++++++++++++++++++++++++++",
"++++++++++++++++++++++++++++++++",
"++++++++++++++++++++++++++++++++",
"++++++++++++++++++++++++++++++++",
"++++++++++++++++++++++++++++++++",
"++++++++++++++++++++++++++++++++",
"++++++++++++++++++++++++++++++++",
"++++++++++++++++++++++++++++++++",
"++++++++++++++++++++++++++++++++",
"++++++++++++++++++++++++++++++++",
"+++++++OOOOOO++++++OOOOOO+++++++",
"+++++++OOOOOO.OOOO.OOOOOO+++++++",
"+++++++OOOOOO.OOOO.OOOOOO+++++++",
"+++++++OOO....OOOO....OOO+++++++",
"+++++++OOO.OOOooooOOO.OOO+++++++",
"+++++++OOO.OOoOOOOoOO.OOO+++++++",
"++++++++...OoOOOOOOoO...++++++++",
"++++++++OOOoOO X XOOoOOO++++++++",
"++++++++OOOoO     XOoOOO++++++++",
"++++++++OOOoOO   XOOoOOO++++++++",
"++++++++OOOoOOO XOOOoOOO++++++++",
"++++++++...OoOOOOOOoO...++++++++",
"+++++++OOO.OOoOOOOoOO.OOO+++++++",
"+++++++OOO.OOOooooOOO.OOO+++++++",
"+++++++OOO....OOOO....OOO+++++++",
"+++++++OOOOOO.OOOO.OOOOOO+++++++",
"+++++++OOOOOO.OOOO.OOOOOO+++++++",
"+++++++OOOOOO++++++OOOOOO+++++++"
};
