/* XPM */
static char *window_2[] = {
/* columns rows colors chars-per-pixel */
"32 32 54 1 ",
"  c #141317",
". c #15141B",
"X c #18171D",
"o c #1A191E",
"O c #211F1F",
"+ c #1D1C22",
"@ c #201F25",
"# c #211F28",
"$ c #232226",
"% c #25242B",
"& c #28272C",
"* c #2C2A2E",
"= c #32302E",
"- c #282730",
"; c #2D2B32",
": c #312E34",
"> c #312F38",
", c #343235",
"< c #393735",
"1 c #35333B",
"2 c #39363D",
"3 c #3C3A3D",
"4 c #413F3D",
"5 c #44413F",
"6 c #363340",
"7 c #3E3B44",
"8 c #413E45",
"9 c #403F48",
"0 c #444145",
"q c #484645",
"w c #4B4846",
"e c #464349",
"r c #49464B",
"t c #4C494C",
"y c #504D4E",
"u c #53504F",
"i c #4E4D55",
"p c #514F56",
"a c #555252",
"s c #595652",
"d c #555358",
"f c #585659",
"g c #5C5A5A",
"h c #605E5D",
"j c #575760",
"k c #5D5C62",
"l c #5F6066",
"z c #636365",
"x c #64646C",
"c c #69696E",
"v c #6A6C75",
"b c #6F7077",
"n c #71737A",
"m c #757886",
/* pixels */
"vvcxjjkpgffagagfgdfytayytuystuse",
"n07>8r2,;ei317tyy11yar025y4,2uu0",
"c:-+;i3$##t,;&;p9:$:t3-+;t,@o%u0",
"c1++*k:$+$a3*X+f3+.@g:%X$u2@.%ge",
"k8;*:l3;&1zq-$2xq;+*k01&<fa:+=z3",
"zytgjvryfgtuyffuyrdztutggzyyfzg2",
"a32:qwr80usue7utq3385u80tyte8sr3",
"f3X+@y0@@$y,$$%r21:7ye:;$y8$$1a3",
"t9o@@g8@o+f7*X$f,%o:g0&@*a0$+*g1",
"dq::%gr;**pa1@%d3-$5gy;%3kt2*,g>",
"frygpzffpffuuffjgurzcuyfgzyushk>",
"p0110rq130yq11tue32yuy80tss00yu-",
"f2$@;y2+@@r11*;p3o&Oy8$&,s0@@*s;",
"d:&@;a1$@:s1*+&d2&X&d8;+&f8&+*g;",
"d5:-%04;$:zq:@$ir;+*hy1*,gs2;3h*",
"prutyrdgpdkypgfxhtfggtuuhgystfg-",
"pr88rtt96y88124d3820s422quw,3qa;",
"d7*+*a8$@*y1>:*p31$;s1$%&u3%+$u-",
"d8$.oa6+.+f3#o*y1$++f7*o$k2oX$h<",
"tt*$$ty&+.pw;+Oi3;o$k0&#3zy*@=c:",
"9e9ety8rdphyytif7rikxurflgwaghy=",
"8*&:1t*:3qy%*:3e=*,7r17200r23qy*",
"t-@@$t*%@&y:1;3y*1&;r;;$;s2;@:y&",
"t-@o$a:*+*d:$o:g,-+%h*$o&f3@o%g%",
"t,:**l8*@*d3&$$h8,&<g3:-4kq:*<z*",
"sy8fdxtrrfzyuddzyuyhpytzzbsgizv%",
"yy88qy**:0t=*:quy88tyw8quyse9ty#",
"y8@&@p*++$a*$+@08%oou9@.,gq$@*t@",
"88#+#z:@.@y:$o&g8%+ t8oo%g7$+*z@",
"98-#%nq:@*j8-@,ku:%ohp:@$k3;*:c$",
"9r9klm9yfpbppkkvtyahjpglvnpfxjv+",
"8888888886:211227>>:>-%%%%%%*+; "
};
