/* XPM */
static char *carpet[] = {
/* columns rows colors chars-per-pixel */
"32 32 46 1 ",
"  c #764B87",
". c #774E87",
"X c #784F87",
"o c #774B88",
"O c #774E88",
"+ c #784B89",
"@ c #794A8A",
"# c #784C88",
"$ c #784C89",
"% c #7A4C8B",
"& c #7B4F8B",
"* c #7A4C8C",
"= c #7A4F8C",
"- c #7C4E8D",
"; c #7C4F8D",
": c #775187",
"> c #785187",
", c #7A5288",
"< c #7B5389",
"1 c #7B518A",
"2 c #7A5488",
"3 c #7A5589",
"4 c #7B5589",
"5 c #7B558B",
"6 c #7B578A",
"7 c #7C568B",
"8 c #7B518C",
"9 c #7C538C",
"0 c #7C508E",
"q c #7D568C",
"w c #7E548F",
"e c #7C588B",
"r c #7D588B",
"t c #7D588C",
"y c #80588E",
"u c #815990",
"i c #909684",
"p c #929C84",
"a c #95A484",
"s c #A8ABA4",
"d c #ACB0A7",
"f c #B4BDAB",
"g c #B2B2B2",
"h c #BAC5AF",
"j c #C1CEB4",
"k c #C1C1C1",
/* pixels */
"r3>:>133777q7yyrq<77777777r7337r",
"r3::373>7qqqy77y77y<7977777r223r",
"3331.11717qq7777q9<<&<9<yyyr3333",
"7311XX1X993q77+9<9-y99<<177rr733",
"1:11 $$$1$8199$=--99-9=$77777373",
"3:.$X $X$o88-+9=+&-9-=<+#7>3773r",
"33:.8$+o=o$-=9---$--+$7=+>>7>772",
"711$1$$$-o8o8--=+-9---9=1>>27777",
"3<<<<+++-=++---=-$-9=8882$113t3q",
"3><q<=9==+-*-99g$+--=:113<:33t3q",
"q<q399q-$$++9-kkg=$-=$O:<1:11qt3",
"qqqqq999q8-$$$=g$+$$1$O8111.1t1t",
"yqqyy7<99--++=8+9-<+O1O8991111q3",
"yqu77199-9*999w-9y9q81O8=<3q3t3y",
"q1yyy7-$+$99999g999q<-$$===$t8qt",
"q1177y<+$-+9-9gkk999q<$-++8-913q",
"7111999-$k---99k999q9-99+-$q==qq",
"q91$--=-ggk999<9$q99999-9$=999qq",
"$1$9-&-++g+-9-$<<<9999-9==$8<<5q",
"1$+q$--*++$---$=<-9=9939-119&313",
"1+9--$$9=++*--$$=<99-<-$---w9<99",
"q9=++-$$-++++9-$-99$<9===-uyqq9<",
"99$$-=$$-*+++--==9-9$q+9*-9999<9",
"$$$$++9+-++*$-$-=+<99-9$9$+=<<9+",
"$XX++X+$9-$=$-9+$$999<&<a1q1133<",
"7$$&<+$9+9$9$$-99q-9-<jhsp7181q1",
"71><9+$-=$-<1$99<97<<afhaaq751qt",
"y73<q<$+$+9$19q9<<q<pdijtt131q3y",
"y71799++&-+=9y9<qqqq3pp777q3q3qt",
"r731<++9-&<9<9<7qquq77y77r7rt33r",
"r3<1$<79qy9<9<<q7777r7777rt7317r",
"773<<31qyqq9<97yy7<761777rt3333r"
};
