/* XPM */
static char *poledancer[] = {
/* columns rows colors chars-per-pixel */
"32 256 21 1 ",
"  c black",
". c #4987FF",
"X c #989693",
"o c #A1A2A2",
"O c #A2A2A2",
"+ c #A7A5A3",
"@ c #AEAFAF",
"# c #AFAFAF",
"$ c #B4B2B0",
"% c gray73",
"& c #BFBDBB",
"* c #EEC39A",
"= c #F7C697",
"- c #FFD5AD",
"; c #FFDEBE",
": c #C3C4C4",
"> c #C8C6C5",
", c LightGray",
"< c gray87",
"1 c #FFF0E1",
"2 c None",
/* pixels */
"22222222222222###o22222222222222",
"222222222222222#o222222222222222",
"222222222222222:#222222222222222",
"222222222222222:#222222222222222",
"222222222222222:#2....2222222222",
"222222222222222,%......222222222",
"2222222222222221%****..222222222",
"22222222222222211*****.222222222",
"22222222222222111*****..2.222222",
"22222222222222;1>.****...2222222",
"2222222222222;;,&.***...22222222",
"2222222222222;;,&;---;;.22222222",
"2222222222222;;:1----;;;.2222222",
"2222222222222;;111;--;;;22222222",
"22222  222222;;111;;;;;;22222222",
"22222  222222;;:$;;;;;;222222222",
"222222   =2222;:$---;;2222222222",
"22222   = = 222#+-   22222222222",
"2222222= = = = #+  - -2222222222",
"22222222= = = =#+ - - 2222222222",
"22222222222= = # - - -2222222222",
"22222222222222= - - -22222222222",
"22222222222222 - - 2222222222222",
"2222222222222 - - 22222222222222",
"2222222222222- - - 2222222222222",
"22222222222222- - -   2222222222",
"222222222222222o - -   222222222",
"222222222222222oX22  22222222222",
"222222222222222oX22  22222222222",
"222222222222222oX222222222222222",
"222222222222222oX222222222222222",
"22222222222222oooX22222222222222",
"22222222222222###o22222222222222",
"222222222222222#o222222222222222",
"222222222222222:#222222222222222",
"222222222222222:#222222222222222",
"222222222222222:#.22222222222222",
"22222222222222.,%...222.22222222",
"2222222222222.*1%**....222222222",
"2222222222222.*11**...2222222222",
"2222222222222*111**....222222222",
"2222222222222;;1>**...2222222222",
"222222222222;;;,&*..2.2222222222",
"22222222222;;;;,&-;;22.222222222",
"22222222222;;;-:$-;;;22222222222",
"22222222222;;;-11-;;;22222222222",
"222222222222;--11;;;;22222222222",
"2222222222222--11;;;222222222222",
"2222222222222--:$;;2222222222222",
"2222222222222  #+  2222222222222",
"2222222222222  #+--2222222222222",
"22222222  22 = # - 2222222222222",
"22222222  = = = - -2222222222222",
"22222222   = = - -22222222222222",
"22222222  = 22- -222222222222222",
"22222222222222 - 222222222222222",
"22222222222222- -  2222222222222",
"22222222222222 - - 2222222222222",
"222222222222222o-  2222222222222",
"222222222222222oX  2222222222222",
"222222222222222oX222222222222222",
"222222222222222oX222222222222222",
"222222222222222oX222222222222222",
"22222222222222oooX22222222222222",
"22222222222222###o22222222222222",
"222222222222222#o222222222222222",
"222222222222222:#222222222222222",
"222222222222222:#222222222222222",
"22222222222222.:#.22222222222222",
"2222222222222.*,%..222.222222222",
"222222222222.**1%*..2.2222222222",
"222222222222.**11*....2222222222",
"222222222222**111*....2222222222",
"2222222222222;;11*...2.222222222",
"22222222222;;;;;&..2222.22222222",
"2222222222;;;;;,&;;2222222222222",
"2222222222;;;;-:$-;;222222222222",
"2222222222;;;;-11;;;222222222222",
"2222222222;;;-111;;;222222222222",
"222222222222---11;;2222222222222",
"222222222222---:$-22222222222222",
"222222222222- -#+-22222222222222",
"222222222222 = #+ 22222222222222",
"222222222222= =#+-22222222222222",
"222222222222   #+ -2222222222222",
"222222222222  =# - 2222222222222",
"222222222222   #- -2222222222222",
"222222222222  2# - 2222222222222",
"222222222222222o- - 222222222222",
"222222222222222oX-  222222222222",
"222222222222222oX2  222222222222",
"222222222222222oX222222222222222",
"222222222222222oX222222222222222",
"222222222222222oX222222222222222",
"222222222222222oX222222222222222",
"22222222222222oooX22222222222222",
"22222222222222###o22222222222222",
"222222222222222#o222222222222222",
"222222222222222:#222222222222222",
"222222222222222:#222222222222222",
"22222222222....:#222222222222222",
"2222222222.....,%222222222222222",
"222222222...**.1%.22222222222222",
"222222222.**.**11...222222222222",
"222222222.****111..2222222222222",
"222222222.****;1122.222222222222",
"2222222222.**;;;&222222222222222",
"222222222;;--;;,&222222222222222",
"22222222;;;-;;;:1222222222222222",
"22222222;;;;;;;11122222222222222",
"22222222;;;;;;-11;22222222222222",
"222222222;;;;--:$;22222222222222",
"222222222;;----:$222222222222222",
"2222222222-----#+222222222222222",
"2222222222-----#+22222  22222222",
"2222222222      = 2 =   22222222",
"2222222222 = = = = =  2222222222",
"22222222222 = = = = =  222222222",
"2222222222222= #+- - 22222222222",
"222222222222222#+ - - 2222222222",
"222222222222222oX- - -2222222222",
"2222222222222  oX - -22222222222",
"222222222222   oX- 2222222222222",
"22222222222222 oX222222222222222",
"22222222222222 oX222222222222222",
"222222222222222oX222222222222222",
"222222222222222oX222222222222222",
"22222222222222oooX22222222222222",
"22222222222222###o22222222222222",
"222222222222222#o222222222222222",
"222222222222222:#222222222222222",
"222222222222222:#222222222222222",
"22222222222.....#.22222222222222",
"2222222222......%222222222222222",
"222222222.....**1222222222222222",
"222222222.....***1.2222222222222",
"222222222.....***122222222222222",
"2222222222...***>;22222222222222",
"2222222222..***,&;;2222222222222",
"2222222222..;---&;;2222222222222",
"22222222222;;;--;;;2222222222222",
"2222222222;;;;;;;;;2222222222222",
"2222222222;;;;;;;;22222222222222",
"22222222222-;;;;$;22222222222222",
"22222222222-----$;2222  22222222",
"22222222222-----+2222=  22222222",
"22222222222--   = = = = 22222222",
"22222222222  = = = = =   2222222",
"222222222222  = = = 222222222222",
"222222222222   = =22222222222222",
"22222222222222-#+ 22222222222222",
"22222222222222 #+-22222222222222",
"22222222222222-oX 22222222222222",
"222222222222 - oX222222222222222",
"2222222222    -oX222222222222222",
"22222222222  - oX222222222222222",
"22222222222 222oX222222222222222",
"222222222222222oX222222222222222",
"222222222222222oX222222222222222",
"22222222222222oooX22222222222222",
"22222222222222###o22222222222222",
"222222222222222#o222222222222222",
"222222222222222:#222222222222222",
"222222222222222:#222222222222222",
"22222222222222...222222222222222",
"2222222222222.....22222222222222",
"2222222222222.....22222222222222",
"222222222222.......2222222222222",
"222222222222.......2222222222222",
"22222222222.......22222222222222",
"2222222222........22222222222222",
"2222222222.22-....22222222222222",
"222222222222-....-;2222222222222",
"22222222222;------;;222222222222",
"2222222222;;;-----;2222222222222",
"2222222222;;------22222222222222",
"22222222222;-----22  22222222222",
"222222222222-----22  22222222222",
"222222222222----- = =22222222222",
"222222222222 --- = = 22222222222",
"22222222222 -   = = 222222222222",
"22222222222- - = = 2222222222222",
"222222222222- - = 22222222222222",
"2222222222222- #+222222222222222",
"222222222222- -oX222222222222222",
"222222222222 - oX222222222222222",
"222222222222-  oX222222222222222",
"222222222222    X222222222222222",
"22222222222222  X222222222222222",
"222222222222222oX222222222222222",
"222222222222222oX222222222222222",
"22222222222222oooX22222222222222",
"22222222222222###o22222222222222",
"222222222222222#o222222222222222",
"222222222222222:#222222222222222",
"222222222222222:#222222222222222",
"222222222222222...22222222222222",
"22222222222222.....2222222222222",
"2222222222222......2222222222222",
"222222222222........222222222222",
"22222222222.........222222222222",
"22222222222........2222222222222",
"2222222222.2.....*;;222222222222",
"222222222222....---;;22222222222",
"2222222222222;.----;;;2222222222",
"222222222222;;;----;;;2222222222",
"222222222222;;;----;;22222222222",
"222222222222;;------222222222222",
"2222222222222;------222222222222",
"22222222222222----- 222222222222",
"22222222222222     = 22222222222",
"22222222222222- - = =22222222222",
"2222222222222- -   = 22222222222",
"2222222222222 - - = 222222222222",
"2222222222222- -+222222222222222",
"2222222222222 - -222222222222222",
"2222222222222- - 222222222222222",
"22222222222222-   22222222222222",
"222222222222222o   2222222222222",
"222222222222222oX  2222222222222",
"222222222222222oX222222222222222",
"222222222222222oX222222222222222",
"222222222222222oX222222222222222",
"22222222222222oooX22222222222222",
"22222222222222###o22222222222222",
"222222222222222#o222222222222222",
"222222222222222:#222222222222222",
"222222222222222:#222222222222222",
"222222222222222:#....22222222222",
"222222222222222,......2222222222",
"222222222222222,*.....2222222222",
"222222222222222*......2222222222",
"222222222222222.......2222222222",
"222222222222222<*.....2222222222",
"22222222222222.......22222222222",
"2222222222222.2,-..-;;2222222222",
"222222222222222;-----;;222222222",
"22222222222222;;;----;;222222222",
"2222222222222;;;;----;2222222222",
"2222222222  2;;;-----22222222222",
"2222222222  = ;:-----22222222222",
"2222222222   = #---- 22222222222",
"2222222222  = =#    = 2222222222",
"22222222222222 - -   =2222222222",
"22222222222222- -   = 2222222222",
"2222222222222- - - = 22222222222",
"2222222222222 - -222222222222222",
"2222222222222- - -22222222222222",
"22222222222222- -   222222222222",
"222222222222222-   2222222222222",
"222222222222222oX2  222222222222",
"222222222222222oX2  222222222222",
"222222222222222oX222222222222222",
"222222222222222oX222222222222222",
"222222222222222oX222222222222222",
"22222222222222oooX22222222222222"
};
