/* XPM */
static char *poledancer[] = {
/* columns rows colors chars-per-pixel */
"32 256 20 1 ",
"  c black",
". c #989693",
"X c #A1A2A2",
"o c #A2A2A2",
"O c #A7A5A3",
"+ c #AEAFAF",
"@ c #AFAFAF",
"# c #B4B2B0",
"$ c gray73",
"% c #BFBDBB",
"& c #EEC39A",
"* c #F7C697",
"= c #FFD5AD",
"- c #FFDEBE",
"; c #C3C4C4",
": c #C8C6C5",
"> c LightGray",
", c gray87",
"< c #FFF0E1",
"1 c None",
/* pixels */
"11111111111111@@@X11111111111111",
"111111111111111@X111111111111111",
"111111111111111;@111111111111111",
"111111111111111;@111111111111111",
"111111111111111;@1&&&11111111111",
"111111111111111>$&&&&&1111111111",
"111111111111111<$&&&&&&111111111",
"111111111111111<<&&&&&&111111111",
"11111111111111<<<&&&&&&111111111",
"11111111111111-<:&&&&&1111111111",
"1111111111111-->%1&&&11111111111",
"1111111111111-->%-===--111111111",
"1111111111111--;<====---11111111",
"1111111111111--<<<-==---11111111",
"11111  111111--<<<------11111111",
"11111  111111--;#------111111111",
"111111   *1111-;#===--1111111111",
"11111   * * 111@O=   11111111111",
"1111111* * * * @O  = =1111111111",
"11111111* * * *@O = = 1111111111",
"11111111111* * @ = = =1111111111",
"11111111111111* = = =11111111111",
"11111111111111 = = 1111111111111",
"1111111111111 = = 11111111111111",
"1111111111111= = = 1111111111111",
"11111111111111= = =   1111111111",
"111111111111111X = =   111111111",
"111111111111111X.11  11111111111",
"111111111111111X.11  11111111111",
"111111111111111X.111111111111111",
"111111111111111X.111111111111111",
"11111111111111XXX.11111111111111",
"11111111111111@@@X11111111111111",
"111111111111111@X111111111111111",
"111111111111111;@111111111111111",
"111111111111111;@111111111111111",
"111111111111111;@&11111111111111",
"11111111111111&>$&&1111111111111",
"11111111111111&<$&&1111111111111",
"1111111111111&&<<&&&111111111111",
"1111111111111&<<<&&&111111111111",
"1111111111111--<:&&1111111111111",
"111111111111--->%&11111111111111",
"11111111111---->%=--111111111111",
"11111111111---=;#=---11111111111",
"11111111111---=<<=---11111111111",
"111111111111-==<<----11111111111",
"1111111111111==<<---111111111111",
"1111111111111==;#--1111111111111",
"1111111111111  @O  1111111111111",
"1111111111111  @O==1111111111111",
"11111111  11 * @ = 1111111111111",
"11111111  * * * = =1111111111111",
"11111111   * * = =11111111111111",
"11111111  * 11= =111111111111111",
"11111111111111 = 111111111111111",
"11111111111111= =  1111111111111",
"11111111111111 = = 1111111111111",
"111111111111111X=  1111111111111",
"111111111111111X.  1111111111111",
"111111111111111X.111111111111111",
"111111111111111X.111111111111111",
"111111111111111X.111111111111111",
"11111111111111XXX.11111111111111",
"11111111111111@@@X11111111111111",
"111111111111111@X111111111111111",
"111111111111111;@111111111111111",
"111111111111111;@111111111111111",
"11111111111111&;@111111111111111",
"1111111111111&&>$&11111111111111",
"1111111111111&&<$&11111111111111",
"111111111111&&&<<&&1111111111111",
"111111111111&&<<<&&1111111111111",
"1111111111111--<<&11111111111111",
"11111111111-----%111111111111111",
"1111111111----->%--1111111111111",
"1111111111----=;#=--111111111111",
"1111111111----=<<---111111111111",
"1111111111---=<<<---111111111111",
"111111111111===<<--1111111111111",
"111111111111===;#=11111111111111",
"111111111111= =@O=11111111111111",
"111111111111 * @O 11111111111111",
"111111111111* *@O=11111111111111",
"111111111111   @O =1111111111111",
"111111111111  *@ = 1111111111111",
"111111111111   @= =1111111111111",
"111111111111  1@ = 1111111111111",
"111111111111111X= = 111111111111",
"111111111111111X.=  111111111111",
"111111111111111X.1  111111111111",
"111111111111111X.111111111111111",
"111111111111111X.111111111111111",
"111111111111111X.111111111111111",
"111111111111111X.111111111111111",
"11111111111111XXX.11111111111111",
"11111111111111@@@X11111111111111",
"111111111111111@X111111111111111",
"111111111111111;@111111111111111",
"111111111111111;@111111111111111",
"11111111111&&&1;@111111111111111",
"1111111111&&&&&>$111111111111111",
"1111111111&&&&&<$111111111111111",
"111111111&&&&&&<<111111111111111",
"111111111&&&&&<<<111111111111111",
"1111111111&&&&-<<111111111111111",
"11111111111&&---%111111111111111",
"111111111--==-->%111111111111111",
"11111111---=---;<111111111111111",
"11111111-------<<<11111111111111",
"11111111------=<<-11111111111111",
"111111111----==;#-11111111111111",
"111111111--====;#111111111111111",
"1111111111=====@O111111111111111",
"1111111111=====@O11111  11111111",
"1111111111      * 1 *   11111111",
"1111111111 * * * * *  1111111111",
"11111111111 * * * * *  111111111",
"1111111111111* @O= = 11111111111",
"111111111111111@O = = 1111111111",
"111111111111111X.= = =1111111111",
"1111111111111  X. = =11111111111",
"111111111111   X.= 1111111111111",
"11111111111111 X.111111111111111",
"11111111111111 X.111111111111111",
"111111111111111X.111111111111111",
"111111111111111X.111111111111111",
"11111111111111XXX.11111111111111",
"11111111111111@@@X11111111111111",
"111111111111111@X111111111111111",
"111111111111111;@111111111111111",
"111111111111111;@111111111111111",
"111111111111&&&;@111111111111111",
"11111111111&&&&&$111111111111111",
"11111111111&&&&&<111111111111111",
"11111111111&&&&&&<11111111111111",
"11111111111&&&&&&<11111111111111",
"11111111111&&&&&:-11111111111111",
"111111111111&&&>%--1111111111111",
"111111111111-===%--1111111111111",
"11111111111---==---1111111111111",
"1111111111---------1111111111111",
"1111111111--------11111111111111",
"11111111111=----#-11111111111111",
"11111111111=====#-1111  11111111",
"11111111111=====O1111*  11111111",
"11111111111==   * * * * 11111111",
"11111111111  * * * * *   1111111",
"111111111111  * * * 111111111111",
"111111111111   * *11111111111111",
"11111111111111=@O 11111111111111",
"11111111111111 @O=11111111111111",
"11111111111111=X. 11111111111111",
"111111111111 = X.111111111111111",
"1111111111    =X.111111111111111",
"11111111111  = X.111111111111111",
"11111111111 111X.111111111111111",
"111111111111111X.111111111111111",
"111111111111111X.111111111111111",
"11111111111111XXX.11111111111111",
"11111111111111@@@X11111111111111",
"111111111111111@X111111111111111",
"111111111111111;@111111111111111",
"111111111111111;@111111111111111",
"11111111111111&&&111111111111111",
"1111111111111&&&&&11111111111111",
"1111111111111&&&&&11111111111111",
"111111111111&&&&&&&1111111111111",
"111111111111&&&&&&&1111111111111",
"1111111111111&&&&&11111111111111",
"11111111111111&&&-11111111111111",
"1111111111111====-11111111111111",
"111111111111======-1111111111111",
"11111111111-======--111111111111",
"1111111111---=====-1111111111111",
"1111111111--======11111111111111",
"11111111111-=====11  11111111111",
"111111111111=====11  11111111111",
"111111111111===== * *11111111111",
"111111111111 === * * 11111111111",
"11111111111 =   * * 111111111111",
"11111111111= = * * 1111111111111",
"111111111111= = * 11111111111111",
"1111111111111= @O111111111111111",
"111111111111= =X.111111111111111",
"111111111111 = X.111111111111111",
"111111111111=  X.111111111111111",
"111111111111    .111111111111111",
"11111111111111  .111111111111111",
"111111111111111X.111111111111111",
"111111111111111X.111111111111111",
"11111111111111XXX.11111111111111",
"11111111111111@@@X11111111111111",
"111111111111111@X111111111111111",
"111111111111111;@111111111111111",
"111111111111111;@111111111111111",
"111111111111111&&&11111111111111",
"11111111111111&&&&&1111111111111",
"11111111111111&&&&&1111111111111",
"1111111111111&&&&&&&111111111111",
"1111111111111&&&&&&&111111111111",
"11111111111111&&&&&1111111111111",
"111111111111111&&&--111111111111",
"11111111111111=====--11111111111",
"1111111111111-=====---1111111111",
"111111111111---====---1111111111",
"111111111111---====--11111111111",
"111111111111--======111111111111",
"1111111111111-======111111111111",
"11111111111111===== 111111111111",
"11111111111111     * 11111111111",
"11111111111111= = * *11111111111",
"1111111111111= =   * 11111111111",
"1111111111111 = = * 111111111111",
"1111111111111= =O111111111111111",
"1111111111111 = =111111111111111",
"1111111111111= = 111111111111111",
"11111111111111=   11111111111111",
"111111111111111X   1111111111111",
"111111111111111X.  1111111111111",
"111111111111111X.111111111111111",
"111111111111111X.111111111111111",
"111111111111111X.111111111111111",
"11111111111111XXX.11111111111111",
"11111111111111@@@X11111111111111",
"111111111111111@X111111111111111",
"111111111111111;@111111111111111",
"111111111111111;@111111111111111",
"111111111111111;@&&&111111111111",
"111111111111111>&&&&&11111111111",
"111111111111111>&&&&&11111111111",
"111111111111111&&&&&&11111111111",
"111111111111111&&&&&&11111111111",
"111111111111111,&&&&&11111111111",
"111111111111111>%&&&-11111111111",
"111111111111111>====--1111111111",
"111111111111111-=====--111111111",
"11111111111111---====--111111111",
"1111111111111----====-1111111111",
"1111111111  1---=====11111111111",
"1111111111  * -;=====11111111111",
"1111111111   * @==== 11111111111",
"1111111111  * *@    * 1111111111",
"11111111111111 = =   *1111111111",
"11111111111111= =   * 1111111111",
"1111111111111= = = * 11111111111",
"1111111111111 = =111111111111111",
"1111111111111= = =11111111111111",
"11111111111111= =   111111111111",
"111111111111111=   1111111111111",
"111111111111111X.1  111111111111",
"111111111111111X.1  111111111111",
"111111111111111X.111111111111111",
"111111111111111X.111111111111111",
"111111111111111X.111111111111111",
"11111111111111XXX.11111111111111"
};
