/* XPM */
static char *chesttex[] = {
/* columns rows colors chars-per-pixel */
"32 32 26 1 ",
"  c #303439",
". c #303639",
"X c #303839",
"o c #303A39",
"O c #5A3631",
"+ c #5E3731",
"@ c #623831",
"# c #663931",
"$ c #794B3B",
"% c #7D4C3B",
"& c #7C4D3B",
"* c #7F4E3B",
"= c #504D4E",
"- c #53504F",
"; c #565350",
": c #595652",
"> c #804D3B",
", c #834E3B",
"< c #834F3B",
"1 c #85513B",
"2 c #86503B",
"3 c #89523B",
"4 c #88533B",
"5 c #8C543B",
"6 c #8F563B",
"7 c None",
/* pixels */
"77777777777777777777777777777777",
"77777777777777777777777777777777",
"77777777777777777777777777777777",
"77777777777777777777777777777777",
"77777777777777777777777777777777",
"77777777777777777777777777777777",
"77777777777777777777777777777777",
"77777777777777777777777777777777",
"77777777777777777777777777777777",
"77777777777777777777777777777777",
"77777777777777777777777777777777",
"77777777777777777777777777777777",
"77777777777777777777777777777777",
"77777777777777777777777777777777",
"77777777777777777777777777777777",
"77777777777777777777777777777777",
"77777777777777777777777777777777",
"77777777777777777777777777777777",
"77777777777777777777777777777777",
"77777777777777777777777777777777",
"77777777666615515565666677777777",
"77777776663<56556665366667777777",
"777777355663566;-345265664777777",
"777777$<%<6366;Xo-><35664&777777",
"777777#@O@@+@@-..=#@@++#+#777777",
"777777>15656521;-&1265562&777777",
"77777735663556252556656562777777",
"77777765356563554566545655777777",
"77777765566555656663635555777777",
"77777765566535564665653555777777",
"77777761366533366666365566777777",
"77777733<25636666656355556777777"
};
