/* XPM */
static char *window_6[] = {
/* columns rows colors chars-per-pixel */
"32 32 64 1 ",
"  c #0F0B16",
". c #140D17",
"X c #180F17",
"o c #140F19",
"O c #180F19",
"+ c #171219",
"@ c #1A1019",
"# c #19111B",
"$ c #1A121A",
"% c #1C131B",
"& c #1C141B",
"* c #1B121C",
"= c #1C161E",
"- c #1E171E",
"; c #1E161F",
": c #201319",
"> c #23151B",
", c #22161E",
"< c #211B1E",
"1 c #231A1E",
"2 c #25181E",
"3 c #25191E",
"4 c #1D1520",
"5 c #231820",
"6 c #201822",
"7 c #271B23",
"8 c #251C21",
"9 c #241C22",
"0 c #261D22",
"q c #261A24",
"w c #281C22",
"e c #2B1D23",
"r c #281E23",
"t c #2B1F24",
"y c #2A1E27",
"u c #282025",
"i c #2B2124",
"p c #2B2026",
"a c #2B2226",
"s c #2E2427",
"d c #2D2128",
"f c #2F2429",
"g c #352826",
"h c #372428",
"j c #30272E",
"k c #362A2A",
"l c #32292E",
"z c #35282E",
"x c #392B2A",
"c c #3A2A2D",
"v c #3E2D2E",
"b c #3A312F",
"n c #3E2F31",
"m c #3B3132",
"M c #3E3130",
"N c #3F3434",
"B c #433333",
"V c #413136",
"C c #433436",
"Z c #423339",
"A c #42353C",
"S c #46383C",
"D c #483C3D",
"F c None",
/* pixels */
"@@6;;;eeeaVZDbBxtuswusssssDDhDv2",
"2@uw;8waay2SFFFFFFFFus@su2sbDBl+",
"ouutwwwwyaaFFFFFFFFFF--@susuDu +",
";;0w;ywaaFFFFFFFFFFFFFF2ususVO. ",
";aw;;&wwFFFFFFFFFFFFFFFF2a;ij%%.",
"t1i0;yaFFFFFFFFFFFFFFFFFF@@;V;%o",
"uy0yyaFFFFFFFFFFFFFFFFFFFF6aZdo;",
"y0ewa&FFFFFFFFFFFFFFFFFFFFutStt;",
"ay&a4FFFFFFFFFFFFFFFFFFFFFFuDAwu",
"04O,uFFFFFFFFFFFFFFFFFFFFFFbDMww",
"dt6atFFFFFFFFFFFFFFFFFFFFFFmSCDf",
"DDBDFFFFFFFFFFFFFFFFFFFFFFFFDMCC",
"40wqFFFFFFFFFFFFFFFFFFFFFFFF20ww",
"w0w0FFFFFFFFFFFFFFFFFFFFFFFF008w",
"211qFFFFFFFFFFFFFFFFFFFFFFFF01tq",
"0211FFFFFFFFFFFFFFFFFFFFFFFF,12%",
"2<<@FFFFFFFFFFFFFFFFFFFFFFFFw0>>",
"::X%FFFFFFFFFFFFFFFFFFFFFFFF;0>>",
"u:>XFFFFFFFFFFFFFFFFFFFFFFFF%www",
"0a2:FFFFFFFFFFFFFFFFFFFFFFFFO%ww",
"0:wXFFFFFFFFFFFFFFFFFFFFFFFFoO%w",
"00&@FFFFFFFFFFFFFFFFFFFFFFFF*%4@",
"w1w;FFFFFFFFFFFFFFFFFFFFFFFFXj0a",
"c0w0FFFFFFFFFFFFFFFFFFFFFFFFgMVk",
"VVDZFFFFFFFFFFFFFFFFFFFFFFFFCVCS",
"2w00FFFFFFFFFFFFFFFFFFFFFFFFeDM0",
",q,yFFFFFFFFFFFFFFFFFFFFFFFF:DtO",
"q0@2FFFFFFFFFFFFFFFFFFFFFFFFzd*@",
"7XO%FFFFFFFFFFFFFFFFFFFFFFFF6M@;",
"DDzVFFFFFFFFFFFFFFFFFFFFFFFFwxC4",
"djayFFFFFFFFFFFFFFFFFFFFFFFFbCDu",
"2eawFFFFFFFFFFFFFFFFFFFFFFFFDStj"
};
