/* XPM */
static char *window_8[] = {
/* columns rows colors chars-per-pixel */
"32 32 49 1 ",
"  c #0F0B16",
". c #180F17",
"X c #140F19",
"o c #180F19",
"O c #171219",
"+ c #1C141C",
"@ c #23151B",
"# c #24191E",
"$ c #2C1A1F",
"% c #1D1520",
"& c #261B22",
"* c #281C23",
"= c #2C1F28",
"- c #2B2126",
"; c #2D2328",
": c #3E2227",
"> c #352826",
", c #34262B",
"< c #352A2D",
"1 c #3C2C2C",
"2 c #3A312F",
"3 c #3E2E30",
"4 c #3E3132",
"5 c #46251B",
"6 c #462522",
"7 c #4B2623",
"8 c #4D2925",
"9 c #482729",
"0 c #46282A",
"q c #4E2B29",
"w c #532B26",
"e c #592D27",
"r c #552D29",
"t c #5A2E2A",
"y c #55302A",
"u c #5C312C",
"i c #423336",
"p c #41343A",
"a c #46383C",
"s c #483C3D",
"d c #5B3231",
"f c #61352E",
"g c #60382C",
"h c #633631",
"j c #663931",
"k c #534847",
"l c #5E5353",
"z c #625555",
"x c #635F60",
/* pixels */
"Oo++%+--==1is121-;;*---;;;ss>s0#",
"$o-*&&*==-&s2q80855---+-;#;2si<O",
"X---$**&-==r8euuwwuy0+#.;---s- X",
"++&&+=*--ywhwueeeueuhr5#----4+  ",
"+--+++&*qwffw8geyuhu8fu5#-+->++O",
"-*&&%--yhfuf8feewgfe7fjjw+++4%OX",
"-=&---8uqhefeffe5gue7ujju8+-i-O%",
"-&-&-+8uwdtewgtuuuurwffjyy--s=-%",
"--+-+wefweetreuu8futwefu5j8*sa&-",
"&+++=wtt7ettqteuwuht8jftuj52s4&&",
";-&&*7te7uur7ttu8urderteye54sis-",
"ss4swrteruer7rtfwgrr8uhuyehqs2ii",
"&#*&7fwe7wwt9eetwewuwtud7egy#***",
"&&&&wuee7wrr77ee7uru9uue8eu8**&*",
"###&wtee7wer7rwrwhdrqeee7ee9&#&*",
"&##&wfew7etw67dewdtu8ruu7et:###+",
"##@owhhetttt7ddu8wuu8uffruew$&@@",
"@@ooejuh7rrr7urrquyrrtufwfu8O-@@",
"&@@oehfr8ret9uxuwxddquuewyew+**$",
"*&@@efht8eru8xurrdxdwttdwuuyOO*&",
"&@&.9hur6ttt8zttwtzrrddr8uw8X++#",
"&-+.7duq7wwtrkutqtku9rtd8yy6++++",
"*&*+w7ww6ttt8txxlkuuwutdqru7.-&-",
"1&*&6dqdrwwwrtet7tu78rdtrdf9>ii<",
"3isp7udueurr7teuwuttrftdquhqi4is",
"&*&&qrhu7turrfuuwrftwhttrwq0$s4&",
"@&@=quuerwttruuuwrrdrtdfwfwy@s-O",
"&&+@wuer7rer7reywertrrtt8euw<;o+",
"&Xo@wuew6wrr78eu7ury8uue7we8&3O+",
"ss,3wuww7wrr6wwrwudr9eed8eu0&<i&",
";;;=ruew8rrr78rrrduu8ruu5tu:44s=",
"&==*9trfrytu7uue8tuhrhuueujysa--"
};
