/* XPM */
static char *doortex[] = {
/* columns rows colors chars-per-pixel */
"32 32 40 1 ",
"  c #2C1612",
". c #341B16",
"X c #3C1F17",
"o c #361D18",
"O c #381F1A",
"+ c #37201A",
"@ c #3C221B",
"# c #41251D",
"$ c #44291F",
"% c #5B2C17",
"& c #5D2C1D",
"* c #5F301B",
"= c #602E1E",
"- c #62311F",
"; c #432621",
": c #442921",
"> c #4C2E24",
", c #5D2E21",
"< c #4C3126",
"1 c #523225",
"2 c #5D3024",
"3 c #54352B",
"4 c #55392C",
"5 c #58392E",
"6 c #563932",
"7 c #5B3C33",
"8 c #602E21",
"9 c #643222",
"0 c #6B3424",
"q c #6F3826",
"w c #6C3629",
"e c #6E3828",
"r c #703726",
"t c #703926",
"y c #733B29",
"u c #5C4034",
"i c #654A3C",
"p c #6F5346",
"a c #725548",
"s c #735E51",
/* pixels */
"..o++O::::157331$$:#$$$$::uu<u1#",
"@.:#@##::;#71929-&&$#$@$$#:4u4<.",
".;#:####:::990qy0-q-=@XX$:::u$  ",
"OO##O:#::r9y90---rr-t-=#::::4.. ",
"+:#OOO##9-yr==00qut0-yr%@$+$:oo ",
":###O::9rrry0r00-yt0-tyy9ooO5Oo.",
":;#:::8q9yrr0rr0-t0r=ryyy*o:5:.O",
":@:@:o=q-r00-r000rr--yyy00::7::O",
"::o:X00r=00090rr-tw0=rtr*i%#u5$$",
"#+oO$-00=000=000-rt0-tt0ry-1u4@#",
":$+$#-00-r00=00r-twt0000-0=275u:",
"uu67--00-0r-=90r9q9980tr-0r-u355",
"@@##=r00=-8080009-0q90w0-0e9####",
"####-r00=090=&00&q0q80r0*9e*##@#",
"@#@#9r--=080&0899y009090*90,@@##",
"#@@@-y-r=909&8r09e0089rr=q0&##@o",
"@@#.-yy00000,w00,9ww8tqt0q--$##X",
"XX..0yry80908w00909090rt9qr-o#XX",
"#XX.qyr8=9q98qsw9stw9qww990-X###",
"##X@9rrw=090,s009esw90909t0q..##",
"#X#.8rr0&r008aq000a08www90-- .X#",
"##..8rw8,8808i0r80iq800w*00&o.o.",
"###X8898=0rr8rsspp8080009w0&o:#$",
">##@&r9r999=8000800=90ww,wt2<331",
"15758wqq0r888r0r8r009tww9wt95557",
"####99rq=r000rr099008r00992&#74@",
"@;+#9rq9990090q0900q9rwr9y9eo7:.",
"#@o#=r09=800899q090q8qr0-0t9>>..",
";..X900-=990==99=q008qr08-0*@3oo",
"77>390-0=909=090-t008q90-901#16@",
":>::9r008808&8099e0089tr=00&357:",
"X;;#800r9q0q,rw990yr9rqt-0yeu7::"
};
