/* XPM */
static char *dooropen_tex[] = {
/* columns rows colors chars-per-pixel */
"32 32 117 2 ",
"   c #0E0B15",
".  c #0F0B16",
"X  c #140D17",
"o  c #170F17",
"O  c #180F17",
"+  c #140D18",
"@  c #140F19",
"#  c #150F1A",
"$  c #180F19",
"%  c #171219",
"&  c #181019",
"*  c #1A1019",
"=  c #1A1119",
"-  c #181219",
";  c #19111B",
":  c #1A101A",
">  c #1A111A",
",  c #1A121A",
"<  c #1A131B",
"1  c #1F1319",
"2  c #1C131B",
"3  c #1A141B",
"4  c #1B141B",
"5  c #1F1519",
"6  c #1C141B",
"7  c #1B121C",
"8  c #1B131C",
"9  c #1A131D",
"0  c #1B141D",
"q  c #1C141C",
"w  c #1D151E",
"e  c #1C161E",
"r  c #1E171E",
"t  c #1E161F",
"y  c #201319",
"u  c #23151B",
"i  c #21161C",
"p  c #22161E",
"a  c #23181E",
"s  c #211B1E",
"d  c #231A1E",
"f  c #27181D",
"g  c #25181E",
"h  c #25191E",
"j  c #2C1A1F",
"k  c #1D1520",
"l  c #201820",
"z  c #231820",
"x  c #201822",
"c  c #241920",
"v  c #241923",
"b  c #251A22",
"n  c #271B23",
"m  c #251C21",
"M  c #271E21",
"N  c #241C22",
"B  c #251C23",
"V  c #261D22",
"C  c #261C23",
"Z  c #261924",
"A  c #261A24",
"S  c #281D20",
"D  c #281C22",
"F  c #281D23",
"G  c #2B1D23",
"H  c #281E23",
"J  c #291F23",
"K  c #2B1F24",
"L  c #291C27",
"P  c #2A1E27",
"I  c #2C1F28",
"U  c #282025",
"Y  c #2B2024",
"T  c #2B2124",
"R  c #2B2025",
"E  c #2B2125",
"W  c #282225",
"Q  c #2B2026",
"!  c #2B2226",
"~  c #2E2427",
"^  c #2C2128",
"/  c #2D2128",
"(  c #2C2228",
")  c #2E2328",
"_  c #2E2429",
"`  c #2F2429",
"'  c #352826",
"]  c #372428",
"[  c #30272E",
"{  c #362A2A",
"}  c #32292E",
"|  c #35282E",
" . c #362C2C",
".. c #392B2A",
"X. c #3A2A2D",
"o. c #3B2F2F",
"O. c #3E2D2E",
"+. c #3A312F",
"@. c #3E2E30",
"#. c #3F2E30",
"$. c #3E2F31",
"%. c #3B3132",
"&. c #3E3030",
"*. c #3E3130",
"=. c #3F3033",
"-. c #3F3134",
";. c #3F3234",
":. c #3F3434",
">. c #433333",
",. c #413136",
"<. c #433436",
"1. c #423339",
"2. c #40333A",
"3. c #42353C",
"4. c #46383C",
"5. c #483C3D",
"6. c None",
/* pixels */
"* * t t t t K K K Q $.1.5.+.*...Q Q ~ D T ~ ~ ~ ~ ~ 5.5.] 5.O.g ",
"g * Q D t m D Q Q Q V 4.6.6.6.6.6.6.6.6.U ! , ! ! g ~ +.5.>.[ % ",
"@ U U K D D D D Q Q Q 6.6.6.6.6.6.6.6.6.6.r r , ! ! ! ! 5.Q . @ ",
"t t V D k Q D Q Q 6.6.6.6.6.6.6.6.6.6.6.6.6.6.h ! ! ! ! ,.* X . ",
"k K H t t 6 D D 6.6.6.6.6.6.6.6.6.6.6.6.6.6.6.6.h ! r T ` 6 6 X ",
"Q m H V t Q Q 6.6.6.6.6.6.6.6.6.6.6.6.6.6.6.6.6.6., , e ,.k 2 @ ",
"Q P V K Q Q 6.6.6.6.6.6.6.6.6.6.6.6.6.6.6.6.6.6.6.6.t Q 1./ @ t ",
"Q N K V Q 6 6.6.6.6.6.6.6.6.6.6.6.6.6.6.6.6.6.6.6.6.! Q 4.K Q t ",
"Q Q 6 Q k 6.6.6.6.6.6.6.6.6.6.6.6.6.6.6.6.6.6.6.6.6.6.U 5.3.D Q ",
"V k * t Q 6.6.6.6.6.6.6.6.6.6.6.6.6.6.6.6.6.6.6.6.6.6.+.5.*.V D ",
"/ K x T K 6.6.6.6.6.6.6.6.6.6.6.6.6.6.6.6.6.6.6.6.6.6.%.4.<.5./ ",
"5.5.:.5.6.6.6.6.6.6.6.6.6.6.6.6.6.6.6.6.6.6.6.6.6.6.6.6.5.$.<.<.",
"x m D A 6.6.6.6.6.6.6.6.6.6.6.6.6.6.6.6.6.6.6.6.6.6.6.6.g D D D ",
"D D D V 6.6.6.6.6.6.6.6.6.6.6.6.6.6.6.6.6.6.6.6.6.6.6.6.V V m D ",
"g d d A 6.6.6.6.6.6.6.6.6.6.6.6.6.6.6.6.6.6.6.6.6.6.6.6.m d H A ",
"m g d d 6.6.6.6.6.6.6.6.6.6.6.6.6.6.6.6.6.6.6.6.6.6.6.6.z d d y ",
"g s s % 6.6.6.6.6.6.6.6.6.6.6.6.6.6.6.6.6.6.6.6.6.6.6.6.D D u u ",
"y u O , 6.6.6.6.6.6.6.6.6.6.6.6.6.6.6.6.6.6.6.6.6.6.6.6.t m u u ",
"U y u O 6.6.6.6.6.6.6.6.6.6.6.6.6.6.6.6.6.6.6.6.6.6.6.6.7 D D D ",
"V T g y 6.6.6.6.6.6.6.6.6.6.6.6.6.6.6.6.6.6.6.6.6.6.6.6.$ 2 D D ",
"V y D O 6.6.6.6.6.6.6.6.6.6.6.6.6.6.6.6.6.6.6.6.6.6.6.6.@ $ 2 D ",
"V V 6 * 6.6.6.6.6.6.6.6.6.6.6.6.6.6.6.6.6.6.6.6.6.6.6.6.7 2 t , ",
"n m D t 6.6.6.6.6.6.6.6.6.6.6.6.6.6.6.6.6.6.6.6.6.6.6.6.* ` V Q ",
"X.m D m 6.6.6.6.6.6.6.6.6.6.6.6.6.6.6.6.6.6.6.6.6.6.6.6.' *.,.{ ",
",.,.5.1.6.6.6.6.6.6.6.6.6.6.6.6.6.6.6.6.6.6.6.6.6.6.6.6.<.,.<.4.",
"g D V V 6.6.6.6.6.6.6.6.6.6.6.6.6.6.6.6.6.6.6.6.6.6.6.6.G 5.*.N ",
"p A p G 6.6.6.6.6.6.6.6.6.6.6.6.6.6.6.6.6.6.6.6.6.6.6.6.y 5.Q $ ",
"A V , g 6.6.6.6.6.6.6.6.6.6.6.6.6.6.6.6.6.6.6.6.6.6.6.6.| ` ; * ",
"A O * 2 6.6.6.6.6.6.6.6.6.6.6.6.6.6.6.6.6.6.6.6.6.6.6.6.x *.* e ",
"5.5.} ,.6.6.6.6.6.6.6.6.6.6.6.6.6.6.6.6.6.6.6.6.6.6.6.6.D ..<.k ",
"/ ` / P 6.6.6.6.6.6.6.6.6.6.6.6.6.6.6.6.6.6.6.6.6.6.6.6.*.<.5.Q ",
"g K K D 6.6.6.6.6.6.6.6.6.6.6.6.6.6.6.6.6.6.6.6.6.6.6.6.5.4.Q ` "
};
