/* XPM */
static char *doortex_open[] = {
/* columns rows colors chars-per-pixel */
"32 32 112 2 ",
"   c #2B1612",
".  c #2C1613",
"X  c #301814",
"o  c #301815",
"O  c #331A14",
"+  c #301A16",
"@  c #311A16",
"#  c #341A14",
"$  c #341A16",
"%  c #351A16",
"&  c #351B16",
"*  c #351B17",
"=  c #331C16",
"-  c #341C16",
";  c #351C16",
":  c #351D17",
">  c #371D17",
",  c #351E17",
"<  c #361E17",
"1  c #371E17",
"2  c #3A1D16",
"3  c #3A1F16",
"4  c #3D1F17",
"5  c #351D19",
"6  c #361C18",
"7  c #361D18",
"8  c #371E18",
"9  c #361E19",
"0  c #381F1A",
"q  c #381F1B",
"w  c #37201A",
"e  c #3B2018",
"r  c #39201A",
"t  c #39201B",
"y  c #3A211B",
"u  c #3C201A",
"i  c #3D211A",
"p  c #3D211B",
"a  c #3F211A",
"s  c #3D231A",
"d  c #3F221A",
"f  c #3E221B",
"g  c #3B241A",
"h  c #3A211D",
"j  c #3F231D",
"k  c #3E221E",
"l  c #3F251C",
"z  c #3E251D",
"x  c #3F251E",
"c  c #402119",
"v  c #45231B",
"b  c #41251B",
"n  c #40221F",
"m  c #40231F",
"M  c #40251D",
"N  c #41251D",
"B  c #40261C",
"V  c #40241E",
"C  c #40251E",
"Z  c #41251E",
"A  c #41261E",
"S  c #42271E",
"D  c #44251E",
"F  c #44271F",
"G  c #44281F",
"H  c #44291F",
"J  c #422521",
"K  c #432621",
"L  c #452722",
"P  c #412820",
"I  c #412A20",
"U  c #442820",
"Y  c #442920",
"T  c #442821",
"R  c #442A21",
"E  c #462B21",
"W  c #452922",
"Q  c #452A22",
"!  c #462B22",
"~  c #462B23",
"^  c #472B23",
"/  c #4E2B22",
"(  c #4C2F21",
")  c #482E27",
"_  c #4C2F27",
"`  c #4A3027",
"'  c #4D3024",
"]  c #4D3226",
"[  c #503124",
"{  c #503026",
"}  c #543327",
"|  c #513528",
" . c #503628",
".. c #51362B",
"X. c #543429",
"o. c #553429",
"O. c #543529",
"+. c #543629",
"@. c #54352A",
"#. c #55352B",
"$. c #55362C",
"%. c #55372C",
"&. c #56362E",
"*. c #55392C",
"=. c #58382B",
"-. c #58392E",
";. c #553831",
":. c #573831",
">. c #573A33",
",. c #5B3C33",
"<. c #5C4034",
"1. c None",
/* pixels */
"% % 1 t t t T T L P #.&.<.| #.[ T R R b S R E R R E <.<./ <.} c ",
"a % T N t N N T T P N <.1.1.1.1.1.1.1.1.b T t R H b R +.<.=.) = ",
"+ P P T N N N N T T T 1.1.1.1.1.1.1.1.1.1.t 0 1 R R R R ,.L   + ",
"t w N N t T N T T 1.1.1.1.1.1.1.1.1.1.1.1.1.1.b R R R R *.1 +   ",
"w P S w w 1 N N 1.1.1.1.1.1.1.1.1.1.1.1.1.1.1.1.l S t H T 2 1 . ",
"P N N N t T T 1.1.1.1.1.1.1.1.1.1.1.1.1.1.1.1.1.1.1 1 t :.t 0 + ",
"T L l T P L 1.1.1.1.1.1.1.1.1.1.1.1.1.1.1.1.1.1.1.1.t T -.T + 0 ",
"T l T N T 1 1.1.1.1.1.1.1.1.1.1.1.1.1.1.1.1.1.1.1.1.R P ,.L T t ",
"T T 8 L t 1.1.1.1.1.1.1.1.1.1.1.1.1.1.1.1.1.1.1.1.1.1.S <.>.N P ",
"N t 1 t T 1.1.1.1.1.1.1.1.1.1.1.1.1.1.1.1.1.1.1.1.1.1...<.#.N N ",
"T S t N N 1.1.1.1.1.1.1.1.1.1.1.1.1.1.1.1.1.1.1.1.1.1.| ,.*.<.T ",
"<.<.;.<.1.1.1.1.1.1.1.1.1.1.1.1.1.1.1.1.1.1.1.1.1.1.1.1.<.#.-.-.",
"j l N j 1.1.1.1.1.1.1.1.1.1.1.1.1.1.1.1.1.1.1.1.1.1.1.1.c N N N ",
"N N N b 1.1.1.1.1.1.1.1.1.1.1.1.1.1.1.1.1.1.1.1.1.1.1.1.N N m N ",
"a l l j 1.1.1.1.1.1.1.1.1.1.1.1.1.1.1.1.1.1.1.1.1.1.1.1.a s l J ",
"l t e l 1.1.1.1.1.1.1.1.1.1.1.1.1.1.1.1.1.1.1.1.1.1.1.1.a l t e ",
"e l e 1 1.1.1.1.1.1.1.1.1.1.1.1.1.1.1.1.1.1.1.1.1.1.1.1.N N e 4 ",
"e e # % 1.1.1.1.1.1.1.1.1.1.1.1.1.1.1.1.1.1.1.1.1.1.1.1.w N 4 4 ",
"b e c # 1.1.1.1.1.1.1.1.1.1.1.1.1.1.1.1.1.1.1.1.1.1.1.1.6 N b N ",
"N b e e 1.1.1.1.1.1.1.1.1.1.1.1.1.1.1.1.1.1.1.1.1.1.1.1.% 1 N N ",
"N e b # 1.1.1.1.1.1.1.1.1.1.1.1.1.1.1.1.1.1.1.1.1.1.1.1.o % 1 N ",
"N N 1 % 1.1.1.1.1.1.1.1.1.1.1.1.1.1.1.1.1.1.1.1.1.1.1.1.0 % 1 1 ",
"J l N 8 1.1.1.1.1.1.1.1.1.1.1.1.1.1.1.1.1.1.1.1.1.1.1.1.1 T l T ",
"_ N j N 1.1.1.1.1.1.1.1.1.1.1.1.1.1.1.1.1.1.1.1.1.1.1.1.E &.*.' ",
"o.-.<.;.1.1.1.1.1.1.1.1.1.1.1.1.1.1.1.1.1.1.1.1.1.1.1.1.-.*.-.,.",
"j N l N 1.1.1.1.1.1.1.1.1.1.1.1.1.1.1.1.1.1.1.1.1.1.1.1.v <.#.N ",
"4 m t D 1.1.1.1.1.1.1.1.1.1.1.1.1.1.1.1.1.1.1.1.1.1.1.1.2 ,.T % ",
"n l 8 c 1.1.1.1.1.1.1.1.1.1.1.1.1.1.1.1.1.1.1.1.1.1.1.1._ ~ % 8 ",
"n 1 8 2 1.1.1.1.1.1.1.1.1.1.1.1.1.1.1.1.1.1.1.1.1.1.1.1.a | 8 8 ",
"<.,.) o.1.1.1.1.1.1.1.1.1.1.1.1.1.1.1.1.1.1.1.1.1.1.1.1.S ] ;.t ",
"T R R ~ 1.1.1.1.1.1.1.1.1.1.1.1.1.1.1.1.1.1.1.1.1.1.1.1.#.*.<.T ",
"c T J N 1.1.1.1.1.1.1.1.1.1.1.1.1.1.1.1.1.1.1.1.1.1.1.1.<.,.T R "
};
