/* XPM */
static char *fence[] = {
/* columns rows colors chars-per-pixel */
"32 32 73 1 ",
"  c #663A32",
". c #6C3D33",
"X c #613938",
"o c #6A3E39",
"O c #6E4134",
"+ c #6D4C34",
"@ c #714234",
"# c #734A35",
"$ c #75463A",
"% c #754D3C",
"& c #7D4B3B",
"* c #6F5535",
"= c #735336",
"- c #785437",
"; c #755A37",
": c #7D523A",
"> c #765A39",
", c #7E5A3B",
"< c #736537",
"1 c #766238",
"2 c #7C643C",
"3 c #766938",
"4 c #7C6C3C",
"5 c #7D743C",
"6 c #7E7E3D",
"7 c #824E3B",
"8 c #86513B",
"9 c #8C543B",
"0 c #825D3C",
"q c #83653C",
"w c #846D3D",
"e c #83743E",
"r c #837C3F",
"t c #897D40",
"y c #7A933C",
"u c #7C9C3D",
"i c #7DA03E",
"p c #7FB13F",
"a c #7EB040",
"s c #7FBD41",
"d c #7FCC41",
"f c #83833F",
"g c #81AA3E",
"h c #848341",
"j c #839B43",
"k c #889F45",
"l c #82A441",
"z c #86A943",
"x c #8CAB46",
"c c #86B244",
"v c #8BB446",
"b c #83BB42",
"n c #8ABB46",
"m c #8DB349",
"M c #8EBE48",
"N c #91B249",
"B c #90B94A",
"V c #83C243",
"C c #8BC347",
"Z c #81CD42",
"A c #89CD47",
"S c #8EC649",
"D c #8DCC49",
"F c #91C449",
"G c #91CB4B",
"H c #83D144",
"J c #8AD647",
"K c #8ED34B",
"L c #8FD94B",
"P c #92D34B",
"I c #93DA4D",
"U c #96E14E",
"Y c None",
/* pixels */
"YYYYYYYYYYYYYYYYYYYYYYYYYYYYYYYY",
"YYYYYYYYYYYYYYYYYYYYYYYYYYYYYYYY",
"YYYYYYYYYYYYYYYYYYYYYYYYYYYYYYYY",
"YYYY8YYYYYYYYYYYYYYY8YYYYYYYYYYY",
"YYYY&YYYYYYYYYYYYYYY7YYYYYY&YYYY",
"YYYY98YYYYYYYYYY@.Y798YYYYY&&YY@",
".YY887YYY@YY&YYY.@Y79$YYYYY88YY@",
"@@Y7&7YY@@Y988YY..7$789Y.Y87&7Y.",
".@Y877Y..@Y888YY..78&77Y.Y7977Y.",
"..Y797@@@.88878Y..@787$. @&$&8Y.",
"..Y998...Y7$779Y..@887$..@7879$.",
"..Y898@..Y98878@@..&&$$...$7$&..",
".O&78&@..Y79887...@7$$@...@&97..",
"..&&&7...Y77897@...&7$....@778..",
"..&78$...X$787&@...77&..@..898@.",
"..8$8@.. o$$77&.@ .78&@@...$77@.",
".@78&. .oo&7777@...8&$....@&7&..",
".$97&...@$77777....7&&O....7&7. ",
"..&&7@..@&7887&$...77$@. ..87@..",
"..888...@877&7&....@&&..  .7&7.@",
"..878....777977....77&O....&788.",
".@77&....878778$@.@$77.. .@7778@",
".O7&8...$&&&77&O..@$&@.....8&87@",
".@78$...@8&8::8...@7&&.OOO@&8&7@",
"@8&%$O.OO&80x0&o@ .&$&#+yO@&&::#",
"#%xq=@.#%,02xt:&@..&7:a<*+#080u2",
"--2vi+-;xxl08N,%#++@0epby+;x0qpg",
"wzeCe1vv24t42qN00j;=lzv3*<nbw1v4",
"MbhFg<Cn4zBxuwBe3b5nrre4n5SnvwNw",
"VPIGfdDs6n422eMFgPVSCFFPPPFeeFrr",
"DHIPGIKALS52cCfdUIP6GUPIIIfnfFPG",
"KIPhPLdILPDGHALLJHC5GIFrPIPSGPZZ"
};
