/* XPM */
static char *fence[] = {
/* columns rows colors chars-per-pixel */
"32 32 71 1 ",
"  c #673A31",
". c #6C3D33",
"X c #6E4134",
"o c #6D4C34",
"O c #714234",
"+ c #734A35",
"@ c #74463A",
"# c #754D3C",
"$ c #7D4B3B",
"% c #6F5535",
"& c #735336",
"* c #785437",
"= c #755A37",
"- c #7D523A",
"; c #765A39",
": c #7E5A3B",
"> c #736537",
", c #766238",
"< c #7C643C",
"1 c #766938",
"2 c #7C6C3C",
"3 c #7D743C",
"4 c #7E7E3D",
"5 c #824E3B",
"6 c #86513B",
"7 c #8C543B",
"8 c #825D3C",
"9 c #83653C",
"0 c #846D3D",
"q c #83743E",
"w c #837C3F",
"e c #897D40",
"r c #7A933C",
"t c #7C9C3D",
"y c #7DA03E",
"u c #7FB13F",
"i c #7EB040",
"p c #7FBD41",
"a c #7FCC41",
"s c #83833F",
"d c #81AA3E",
"f c #848341",
"g c #839B43",
"h c #889F45",
"j c #82A441",
"k c #86A943",
"l c #8CAB46",
"z c #86B244",
"x c #8BB446",
"c c #83BB42",
"v c #8ABB46",
"b c #8DB349",
"n c #8EBE48",
"m c #91B249",
"M c #90B94A",
"N c #83C243",
"B c #8BC347",
"V c #81CD42",
"C c #89CD47",
"Z c #8EC649",
"A c #8DCC49",
"S c #91C449",
"D c #91CB4B",
"F c #83D144",
"G c #8AD647",
"H c #8ED34B",
"J c #8FD94B",
"K c #92D34B",
"L c #93DA4D",
"P c #96E14E",
"I c None",
/* pixels */
"IIIIIIIIIIIIIIIIIIIIIIIIIIIIIIII",
"IIIIIIIIIIIIIIIIIIIIIIIIIIIIIIII",
"IIIIIIIIIIIIIIIIIIIIIIIIIIIIIIII",
"IIII6IIIIIIIIIIIIIII6IIIIIIIIIII",
"IIII$IIIIIIIIIIIIIII5IIIIII5IIII",
"IIII76IIIIIIIIIIO.I576IIIII@5IIO",
".II665IIIOII$III.OI@7@IIIII66IIO",
"OOI5$5IIOOI766II..6$567I.I7$5$I.",
".OI655I..OI666II..57$$5I.I6655I.",
"..I57$@.O.66556IO..565$. O$@$6I.",
"..I776O..I5$557I...655@..O5657@.",
"..I676O..I75665O...$$$@...@5@$..",
".X555$O..I56665...@5$@. ..O$75..",
"..$$$5...I55675O...$5@....O556O.",
"..$56@. .I@6655O...55$....O676..",
"..6@6O...I6@55$.. .56$@.O..@55O.",
".O55@@ .@I$$555....7$$....O@5$..",
".O75$.. .$55565@...5$$O ..O5$5..",
".O$55@X..$5765$....55@O.  O6@@..",
"..575...@555$5$....O@$..  .5$5.O",
"..657....555655....55$... .$666O",
".O55$. ..656566@O.OO55.O..O5555O",
"..5$6...@$$$55$...O$$O... O6$65O",
".@56@....7$5$86...O$$$.XXXO$6$$O",
"O6+#@....$6-l8$.O  $@-OorXX$$-$+",
"++l9*+.+&:8ele-$OX.$6:y>%o+688t<",
"**2byo*;lkh85m:#O+O+83ucro=b89dz",
"0kqnq,xb<2e2:9b88g=&jzb1%>vc0,z2",
"BcfSd1BB<lblt9Mq1c3vww22xqDBx0m0",
"BKKDsNCprv2<2qSSNAcZBDDKKKSwqSww",
"CFLLKKHCKZ2<iZsaLLDrDPKLLLsdsSKD",
"HLDfKJaLJLCDCCLLGVB2DLSwKLKZDKVV"
};
