/* XPM */
static char *floortex[] = {
/* columns rows colors chars-per-pixel */
"32 32 54 1 ",
"  c #40170E",
". c #41170E",
"X c #471C12",
"o c #491D13",
"O c #4B1E14",
"+ c #4F1F14",
"@ c #4E2015",
"# c #512114",
"$ c #502216",
"% c #552416",
"& c #5D2517",
"* c #56261A",
"= c #592618",
"- c #5A271B",
"; c #58281B",
": c #5A281B",
"> c #5D2819",
", c #5F2A1B",
"< c #5B2A1C",
"1 c #5C2A1C",
"2 c #5E2C1E",
"3 c #5F2C1E",
"4 c #612B1C",
"5 c #662B1C",
"6 c #602C1D",
"7 c #622C1C",
"8 c #632C1C",
"9 c #612E1F",
"0 c #652E1D",
"q c #652F1F",
"w c #6B2F1F",
"e c #69301F",
"r c #622E20",
"t c #652F21",
"y c #643021",
"u c #673122",
"i c #693021",
"p c #6A3123",
"a c #683223",
"s c #693323",
"d c #6B3322",
"f c #6D3221",
"g c #6C3324",
"h c #6D3424",
"j c #6E3625",
"k c #6F3726",
"l c #703322",
"z c #713423",
"x c #763623",
"c c #713725",
"v c #723624",
"b c #733724",
"n c #743724",
"m c #703826",
/* pixels */
"*O0sxs4u0sscicnnccc4csuus0mmmmta",
"sm,cjnfjfmcs3fccjsa<sms306jjmm46",
"$%cjcsfcjjjuX>44u3<Ommfjmujmcmtu",
":-cjcvuvsjmm+slcctg3sjmmj6jjcnmm",
"o:mhvmfmxjum*sjcmjfrsmmjj6mjjmms",
"@umjjm6smm3muhjjccj6cjjmm:6ujms4",
":6hvnm3j0fmmuqcmjjjschm6$-0jjjs0",
"ssxmjj66jxmm6jjjugjummmjj$:3:0,3",
"sjxmjfsjcfccscmma0i<jjmmt*3tffj<",
"sjcmsjtsscxjhjhjarc<amjjj:tajccc",
"ehcccs-ccfscssmmcasrgmjmu6jjjccf",
"0vmjsr,fgcss3mvmagjsgcmjc0mjugcx",
"6mvthcsccc3c3cjjacj3jjjmctmjjgcc",
",jsvfv4fmgjmfcusstarjjmjj3jccjjc",
"3vvejcwvnmjjymmhmuj-sjnms6xfjsjm",
"0h5sss,jmn0c3mms<jj3ammnctccscmc",
"svmwsc4efusj*jjcrasrjmmjs3cccfjx",
"0cmss&-o,=,3$tjsjjarjnjmcumcc4sm",
"3m:swm-0junm*jmmjjjtjmjac;jncimj",
"0muuxj0cjjcc-jcmjccrcjjjc0mnnccs",
"ujsjnmgcujcn6nm6cjjrmanjj4sccclj",
"ujjunkjcjacc0mmm<cmtmmcjcwxcxcjj",
"sccmknajcgjj0mmmmmmamcjjn4cjjcjj",
"6smcccaccjjmfcmanmn<mscj4$ssccc4",
":sjjjmvxnmnnfjmjccj33cnzm6acmara",
"-usmmm0cmmjj3mjmic0+<trr36ufcca3",
"*0jfvw0vcfcssa6jsi4,rcjjj,jjmjj4",
"3fjjvssffvcssjuagac4cccjg3jjsjv3",
"Xvmcvjfjcncnaajjcnc4jccfssjmjc0*",
" ,uxjfsfjmjcumccajnrcccfjsmjmmm6",
",ve=x-$vfjmmfacgmmc-njjjs6jmmm6t",
"* #8=-$wtjsmsnccjmj3cjjsn6nmmsss"
};
