/* XPM */
static char *floortex[] = {
/* columns rows colors chars-per-pixel */
"32 32 35 1 ",
"  c #A1450D",
". c #A3470F",
"X c #A34912",
"o c #A64A10",
"O c #A84C12",
"+ c #AA4E13",
"@ c #AA4F18",
"# c #AD5015",
"$ c #AE5115",
"% c #AF5217",
"& c #AE511A",
"* c #AD511C",
"= c #AE541E",
"- c #AF551E",
"; c #B05317",
": c #B45619",
"> c #B0551C",
", c #B3571F",
"< c #B4581F",
"1 c #AF5621",
"2 c #B25722",
"3 c #B35821",
"4 c #B35925",
"5 c #B35926",
"6 c #B75C25",
"7 c #B85B22",
"8 c #B85C22",
"9 c #B65D28",
"0 c #BB6028",
"q c #BB612D",
"w c #BB622F",
"e c #BD632D",
"r c #BF6532",
"t c #C06734",
"y c #C16836",
/* pixels */
";;:88$$>$&>0:07<$$3:6<$$t5:>=3O:",
":8:8:880:o8808;$..:800;;00t32$:0",
":0::80:;$$::::83$880y0:8te803+<e",
":8:80:;$:$:::88:0:0;86;8:6t8<$;0",
":O<:;$;$;$0888:8888>:8;0tt6t:>9:",
"$$O$<*8e$.;6;::8888*O;$$;t:t;<0:",
";:.=23>33;$;$$80;>>*13$$>t9t.;<;",
"$O:3<<e<68<;6;;0$<>o38;:#@>+;;7:",
":>0800<3<:6;;O$::#;;;:<;::7;+;::",
"88:380r3&$:;<$:O;:#::8:87<O::6::",
"::e8:06;>::8068;7#$;:88::6>:t8::",
":t:0t00t::8:8::0:;;+t;:87e;6;;t<",
":708:87e8800::88;3>378t8t7o6t8t8",
"<;6:8$:<e0086:883<:60:;8+6#;8tt8",
":;<&e:;;2$;83;:9e>7t7733%%#:+t<$",
":O;<t;<;$58:$O605:7:9>3%3:O::><7",
";+:;:;:;:::+#:::<#>6;7<>#;:;<o##",
";#;#o+>+%+:##:;#;:7337:#;+:0<:7+",
"#::<<:y037::::#:;#;::;:;O:<<00:#",
"<;+09t6t6:##:<>>;;3<;76o+:90:t9<",
":::9<t8t<;#;::0:9:;7:>:;::t:0:07",
"6:#7t<:::3##00:09<$<:::6::<8t80:",
"8::7::9;;:;7397tt<;;>+.770t88<:7",
"87:0<t:3;::6%57t80:t7<:>8tt:tt::",
"+++;8;+$9;:;0>%9:6t::0#7<tt07007",
"$$;+0:<$::70>+>3:79>;9::8t9>6t9#",
"$39:;:+#7#0:<#+t7#5;00 #000<000:",
";:t;:976##70;<@&>3>:0##>;0<<><9:",
"t8:8:;;:::#:3##;>#%:2#+::o6o:00:",
";:88;;<<9>>06>>:>3>:#% ##<;>;;0#",
"::6<<;+#3%:#:::<3:7##3:+<06::&++",
"o:t77;+9:@@#::7:#;6t3%%;;#7#<# O"
};
