/* XPM */
static char *grass_floor[] = {
/* columns rows colors chars-per-pixel */
"32 32 16 1 ",
"  c #7CCA3F",
". c #7DC641",
"X c #7FCB41",
"o c #81C746",
"O c #83CD45",
"+ c #85C54B",
"@ c #86CC49",
"# c #89CE4B",
"$ c #86D245",
"% c #89D447",
"& c #87D048",
"* c #8CD44A",
"= c #8ED94A",
"- c #90D74D",
"; c #92DC4D",
": c #95E04E",
/* pixels */
"**@-&&O&$;%%%OO#@*--*$@-+o$O@Oo+",
"O@%O;%O%;-%=OOO&@ $O;;%*@*X=%X.O",
"O*&%&%%%==-==$%O%OOOO X-@%#O-X O",
"*o*#O%$$%;-%-$-=O;*$*$OX@O@==O +",
"**%$#O%;;$=*%-;=--%;$%=*o$$;$OX-",
"-=O$O*==--$$@;-;%-%=$*;-%O%$$.X=",
"##;%$=$--%O*-%;*%%-;-%--*==%..O ",
"#&$=;%%$*%X-O*-%$%=%==%;;%$OOOOo",
"X$$%*-O$=%$%**%%%%;=%-%-OO.$*@O%",
"O$$OX-$$=%*;*%--$$$-:%%==XO=O$OX",
"%$O$=%%X%$%%=$:$$ %%=-%;O*$$OOX ",
"$$$X=-%*=-$%$%--X%;O%==%$%$%#O $",
"%$@-%-$%*$%&%*%:=%=$;;=%=$=O;@@$",
"$=%--%%=:%-%$;=;:=%%=$%-;$$%@$OO",
"O%--;%%;-;%O*;%::%$$;$$$%$==$%*@",
"%--;%;:%=%;;%*-;:$=::$ %%XOO*#$#",
"*&=$:%=;:*$%%%=%%==:;$-%$;$-:%%%",
"%O%$=:::%=%%$=%;::=::--==$;::%--",
"=%&&@*;;:==%$==::=:=::-%==%=-*-%",
";;;=O#@%;=$$%::=:::==;*=;%%$O@##",
";**@%;&%&;*=:=$:==:::%%:-%*#@O#*",
";*O&%=;%%=:&:%$===%::=$==%%&-*Oo",
"#o*#%% O%*&==;%*$%==::X$:=%;--@*",
"#---;%O&;=*;=%==$=:=:=$%==;O;*+O",
"*;--@*##;;#;;#;&*;#;--**$$%O#&o&",
"*#*;**;&-*-;;:;;-#;*;#*O%=@*=O O",
"--;-**-;*-*@*;*;**--*:;Oo**--;=&",
"--*;-==;:*#****#-;:;;;:%$@#*;-&&",
"*;;;;;#::=:;;#*#-;;--*:;%@#*@*%#",
"##%;-:;-:;:;##;;;;;-;#;;-%@ooO@+",
"--*%-;:*;;%;;#&::;;-&-+-*&@o###%",
"*#-*;#&%O@;##;@-;-;;#@*#-o.##@+-"
};
