/* XPM */
static char *window_13[] = {
/* columns rows colors chars-per-pixel */
"16 16 63 1 ",
"  c #140C0D",
". c #0E0914",
"X c #120C16",
"o c #120E17",
"O c #140D17",
"+ c #150F1A",
"@ c #161016",
"# c #1B1317",
"$ c #151019",
"% c #1A131B",
"& c #1C131B",
"* c #1B1618",
"= c #1B141B",
"- c #1F1519",
"; c #1A131C",
": c #1C171D",
"> c #1E171E",
", c #1E161F",
"< c #23151B",
"1 c #21161C",
"2 c #25171E",
"3 c #21191C",
"4 c #211B1E",
"5 c #231A1E",
"6 c #25181E",
"7 c #251A1E",
"8 c #261A1F",
"9 c #1F1821",
"0 c #241621",
"q c #231920",
"w c #271B23",
"e c #241C22",
"r c #261C23",
"t c #291C21",
"y c #281C22",
"u c #291E23",
"i c #2D1E23",
"p c #291C27",
"a c #282125",
"s c #2B2026",
"d c #2B2226",
"f c #2F2626",
"g c #2C2228",
"h c #352826",
"j c #352728",
"k c #30272E",
"l c #322C2D",
"z c #352C2E",
"x c #362F2E",
"c c #392B2A",
"v c #39282D",
"b c #362A30",
"n c #382D30",
"m c #383131",
"M c #3A3031",
"N c #3A3534",
"B c #413136",
"V c #433436",
"C c #433536",
"Z c #40333A",
"A c #433B3A",
"S c #45393C",
"D c #483C3D",
/* pixels */
"6s,ysecss4e,udDk",
",y,ysscs65s#sdV$",
"sy,s$+cw=$,er;M1",
"sss&,%ce=,$$4sSi",
"y%s$;iV-=-@.@=De",
"DZbenNMx;:,r CDC",
"yywwewVe4vSSS6yy",
"w5-0y;Vwy56gke67",
"2#=yw+9<y;ygy&1<",
"w1660O9&$yey9o%w",
"#&,o$oD0o$=6x%%%",
"c06Szlhxyy6DDVhB",
"85ee2o#Ve5-7222B",
"e0ee+%25u$$781f%",
"SsvnmmSe<;663<,V",
"wu%,-VDDCzmfzSSS"
};
