/* XPM */
static char *mirror[] = {
/* columns rows colors chars-per-pixel */
"128 128 3 1 ",
"  c #639BFF",
". c #5FCDE4",
"X c None",
/* pixels */
" X X X X X X X X X.X X X X X X X X X X X X X X X X.X X X X X X X X X X X X X X X X.X X X X X X X X X X X X X X X X.X X X X X X X",
"X X.X X X X X X X X.X X X X X X X X.X X X X X X X X.X X X X X X X X.X X X X X X X X.X X X X X X X X.X X X X X X X X.X X X X X X ",
" X X.X.X X X X X X.X.X.X X X X X X X.X.X X X X X X.X.X.X X X X X X X.X.X X X X X X.X.X.X X X X X X X.X.X X X X X X.X.X.X X X X X",
"X X X X X X X X X X X X X X X X X X X X X X X X X X X X X X X X X X X X X X X X X X X X X X X X X X X X X X X X X X X X X X X X ",
" X X X.X X X X X.X X X.X X X X X X X X.X X X X X.X X X.X X X X X X X X.X X X X X.X X X.X X X X X X X X.X X X X X.X X X.X X X X X",
"X.X X X X X X X X.X X X X X X X X.X X X X X X X X.X X X X X X X X.X X X X X X X X.X X X X X X X X.X X X X X X X X.X X X X X X X ",
".X.X X.X.X X.X.X.X.X X.X.X X.X.X.X.X X.X.X X.X.X.X.X X.X.X X.X.X.X.X X.X.X X.X.X.X.X X.X.X X.X.X.X.X X.X.X X.X.X.X.X X.X.X X.X.X",
"X.X X.X.X X.X.X.X.X X.X.X X X.X.X.X X.X.X X.X.X.X.X X.X.X X X.X.X.X X.X.X X.X.X.X.X X.X.X X X.X.X.X X.X.X X.X.X.X.X X.X.X X X.X.",
".X.X.X.X X X.X.X.X.X.X.X X X.X.X.X.X.X.X X X.X.X.X.X.X.X X X.X.X.X.X.X.X X X.X.X.X.X.X.X X X.X.X.X.X.X.X X X.X.X.X.X.X.X X X.X.X",
"X.X.X.X.X X.X.X.X.X.X.X.X X X.X.X.X.X.X.X X.X.X.X.X.X.X.X X X.X.X.X.X.X.X X.X.X.X.X.X.X.X X X.X.X.X.X.X.X X.X.X.X.X.X.X.X X X.X.",
".X.X.X.X.X.X.X.X.X.X X.X.X X.X.X.X.X.X.X.X.X.X.X.X.X X.X.X X.X.X.X.X.X.X.X.X.X.X.X.X X.X.X X.X.X.X.X.X.X.X.X.X.X.X.X X.X.X X.X.X",
"X.X.X.X X.X X.X.X.X.X.X.X.X X.X.X.X.X.X X.X X.X.X.X.X.X.X.X X.X.X.X.X.X X.X X.X.X.X.X.X.X.X X.X.X.X.X.X X.X X.X.X.X.X.X.X.X X.X.",
".X.X.X X.X X X.X.X.X X.X.X X X.X.X.X.X X.X X X.X.X.X X.X.X X X.X.X.X.X X.X X X.X.X.X X.X.X X X.X.X.X.X X.X X X.X.X.X X.X.X X X.X",
"X X.X.X X.X X.X.X.X X.X.X.X X X.X X.X.X X.X X.X.X.X X.X.X.X X X.X X.X.X X.X X.X.X.X X.X.X.X X X.X X.X.X X.X X.X.X.X X.X.X.X X X.",
" X.X.X.X X.X.X.X.X.X X X.X X X X X.X.X.X X.X.X.X.X.X X X.X X X X X.X.X.X X.X.X.X.X.X X X.X X X X X.X.X.X X.X.X.X.X.X X X.X X X X",
"X X.X X X X X.X.X X X X X.X X X.X X.X X X X X.X.X X X X X.X X X.X X.X X X X X.X.X X X X X.X X X.X X.X X X X X.X.X X X X X.X X X.",
" X X X X X X X X X.X X X.X.X X X X X X X X X X X X.X X X.X.X X X X X X X X X X X X.X X X.X.X X X X X X X X X X X X.X X X.X.X X X",
"X X.X X X X X X X X.X X X.X X X X X.X X X X X X X X.X X X.X X X X X.X X X X X X X X.X X X.X X X X X.X X X X X X X X.X X X.X X X ",
" X X.X.X X X X X X.X.X.X.X.X X X X X.X.X X X X X X.X.X.X.X.X X X X X.X.X X X X X X.X.X.X.X.X X X X X.X.X X X X X X.X.X.X.X.X X X",
"X X X X X X X X X X X X X X X X X X X X X X X X X X X X X X X X X X X X X X X X X X X X X X X X X X X X X X X X X X X X X X X X ",
" X X X.X X X X X X X X.X X X X X X X X.X X X X X X X X.X X X X X X X X.X X X X X X X X.X X X X X X X X.X X X X X X X X.X X X X X",
"X.X X X X X X X X X X X X X X X X.X X X X X X X X X X X X X X X X.X X X X X X X X X X X X X X X X.X X X X X X X X X X X X X X X ",
".X.X X.X.X X.X.X.X.X X.X.X X.X.X.X.X X.X.X X.X.X.X.X X.X.X X.X.X.X.X X.X.X X.X.X.X.X X.X.X X.X.X.X.X X.X.X X.X.X.X.X X.X.X X.X.X",
"X.X X.X.X X.X.X.X.X X.X.X X.X.X.X.X X.X.X X.X.X.X.X X.X.X X.X.X.X.X X.X.X X.X.X.X.X X.X.X X.X.X.X.X X.X.X X.X.X.X.X X.X.X X.X.X.",
".X.X.X.X X X.X.X.X.X.X.X X X.X.X.X.X.X.X X X.X.X.X.X.X.X X X.X.X.X.X.X.X X X.X.X.X.X.X.X X X.X.X.X.X.X.X X X.X.X.X.X.X.X X X.X.X",
"X.X.X.X.X X.X.X.X.X.X.X.X X.X.X.X.X.X.X.X X.X.X.X.X.X.X.X X.X.X.X.X.X.X.X X.X.X.X.X.X.X.X X.X.X.X.X.X.X.X X.X.X.X.X.X.X.X X.X.X.",
".X.X.X.X.X.X.X.X.X.X.X.X.X.X.X.X.X.X.X.X.X.X.X.X.X.X.X.X.X.X.X.X.X.X.X.X.X.X.X.X.X.X.X.X.X.X.X.X.X.X.X.X.X.X.X.X.X.X.X.X.X.X.X.X",
"X.X.X.X.X.X X.X.X.X.X.X.X.X X X.X.X.X.X.X.X X.X.X.X.X.X.X.X X X.X.X.X.X.X.X X.X.X.X.X.X.X.X X X.X.X.X.X.X.X X.X.X.X.X.X.X.X X X.",
".X.X.X.X.X X X.X.X.X.X.X.X X X X.X.X.X.X.X X X.X.X.X.X.X.X X X X.X.X.X.X.X X X.X.X.X.X.X.X X X X.X.X.X.X.X X X.X.X.X.X.X.X X X X",
"X.X.X.X.X.X X.X.X.X.X.X.X.X X X X.X.X.X.X.X X.X.X.X.X.X.X.X X X X.X.X.X.X.X X.X.X.X.X.X.X.X X X X.X.X.X.X.X X.X.X.X.X.X.X.X X X ",
".X.X.X.X.X.X.X.X.X.X.X.X.X X X X.X.X.X.X.X.X.X.X.X.X.X.X.X X X X.X.X.X.X.X.X.X.X.X.X.X.X.X X X X.X.X.X.X.X.X.X.X.X.X.X.X.X X X X",
"X.X.X.X.X.X.X.X.X.X.X.X.X X X.X.X.X.X.X.X.X.X.X.X.X.X.X.X X X.X.X.X.X.X.X.X.X.X.X.X.X.X.X X X.X.X.X.X.X.X.X.X.X.X.X.X.X.X X X.X.",
" X X X X X X X X X.X X X X X X X X X X X X X X X X.X X X X X X X X X X X X X X X X.X X X X X X X X X X X X X X X X.X X X X X X X",
"X X.X X X X X X X X.X X X X X X X X.X X X X X X X X.X X X X X X X X.X X X X X X X X.X X X X X X X X.X X X X X X X X.X X X X X X ",
" X X.X.X X X X X X.X.X.X X X X X X X.X.X X X X X X.X.X.X X X X X X X.X.X X X X X X.X.X.X X X X X X X.X.X X X X X X.X.X.X X X X X",
"X X X X X X X X X X X X X X X X X X X X X X X X X X X X X X X X X X X X X X X X X X X X X X X X X X X X X X X X X X X X X X X X ",
" X X X.X X X X X.X X X.X X X X X X X X.X X X X X.X X X.X X X X X X X X.X X X X X.X X X.X X X X X X X X.X X X X X.X X X.X X X X X",
"X.X X X X X X X X.X X X X X X X X.X X X X X X X X.X X X X X X X X.X X X X X X X X.X X X X X X X X.X X X X X X X X.X X X X X X X ",
".X.X X.X.X X.X.X.X.X X.X.X X.X.X.X.X X.X.X X.X.X.X.X X.X.X X.X.X.X.X X.X.X X.X.X.X.X X.X.X X.X.X.X.X X.X.X X.X.X.X.X X.X.X X.X.X",
"X.X X.X.X X.X.X.X.X X.X.X X X.X.X.X X.X.X X.X.X.X.X X.X.X X X.X.X.X X.X.X X.X.X.X.X X.X.X X X.X.X.X X.X.X X.X.X.X.X X.X.X X X.X.",
".X.X.X.X X X.X.X.X.X.X.X X X.X.X.X.X.X.X X X.X.X.X.X.X.X X X.X.X.X.X.X.X X X.X.X.X.X.X.X X X.X.X.X.X.X.X X X.X.X.X.X.X.X X X.X.X",
"X.X.X.X.X X.X.X.X.X.X.X.X X X.X.X.X.X.X.X X.X.X.X.X.X.X.X X X.X.X.X.X.X.X X.X.X.X.X.X.X.X X X.X.X.X.X.X.X X.X.X.X.X.X.X.X X X.X.",
".X.X.X.X.X.X.X.X.X.X X.X.X X.X.X.X.X.X.X.X.X.X.X.X.X X.X.X X.X.X.X.X.X.X.X.X.X.X.X.X X.X.X X.X.X.X.X.X.X.X.X.X.X.X.X X.X.X X.X.X",
"X.X.X.X X.X X.X.X.X.X.X.X.X X.X.X.X.X.X X.X X.X.X.X.X.X.X.X X.X.X.X.X.X X.X X.X.X.X.X.X.X.X X.X.X.X.X.X X.X X.X.X.X.X.X.X.X X.X.",
".X.X.X X.X X X.X.X.X X.X.X X X.X.X.X.X X.X X X.X.X.X X.X.X X X.X.X.X.X X.X X X.X.X.X X.X.X X X.X.X.X.X X.X X X.X.X.X X.X.X X X.X",
"X X.X.X X.X X.X.X.X X.X.X.X X X.X X.X.X X.X X.X.X.X X.X.X.X X X.X X.X.X X.X X.X.X.X X.X.X.X X X.X X.X.X X.X X.X.X.X X.X.X.X X X.",
" X.X.X.X X.X.X.X.X.X X X.X X X X X.X.X.X X.X.X.X.X.X X X.X X X X X.X.X.X X.X.X.X.X.X X X.X X X X X.X.X.X X.X.X.X.X.X X X.X X X X",
"X X.X X X X X.X.X X X X X.X X X.X X.X X X X X.X.X X X X X.X X X.X X.X X X X X.X.X X X X X.X X X.X X.X X X X X.X.X X X X X.X X X.",
" X X X X X X X X X.X X X.X.X X X X X X X X X X X X.X X X.X.X X X X X X X X X X X X.X X X.X.X X X X X X X X X X X X.X X X.X.X X X",
"X X.X X X X X X X X.X X X.X X X X X.X X X X X X X X.X X X.X X X X X.X X X X X X X X.X X X.X X X X X.X X X X X X X X.X X X.X X X ",
" X X.X.X X X X X X.X.X.X.X.X X X X X.X.X X X X X X.X.X.X.X.X X X X X.X.X X X X X X.X.X.X.X.X X X X X.X.X X X X X X.X.X.X.X.X X X",
"X X X X X X X X X X X X X X X X X X X X X X X X X X X X X X X X X X X X X X X X X X X X X X X X X X X X X X X X X X X X X X X X ",
" X X X.X X X X X X X X.X X X X X X X X.X X X X X X X X.X X X X X X X X.X X X X X X X X.X X X X X X X X.X X X X X X X X.X X X X X",
"X.X X X X X X X X X X X X X X X X.X X X X X X X X X X X X X X X X.X X X X X X X X X X X X X X X X.X X X X X X X X X X X X X X X ",
".X.X X.X.X X.X.X.X.X X.X.X X.X.X.X.X X.X.X X.X.X.X.X X.X.X X.X.X.X.X X.X.X X.X.X.X.X X.X.X X.X.X.X.X X.X.X X.X.X.X.X X.X.X X.X.X",
"X.X X.X.X X.X.X.X.X X.X.X X.X.X.X.X X.X.X X.X.X.X.X X.X.X X.X.X.X.X X.X.X X.X.X.X.X X.X.X X.X.X.X.X X.X.X X.X.X.X.X X.X.X X.X.X.",
".X.X.X.X X X.X.X.X.X.X.X X X.X.X.X.X.X.X X X.X.X.X.X.X.X X X.X.X.X.X.X.X X X.X.X.X.X.X.X X X.X.X.X.X.X.X X X.X.X.X.X.X.X X X.X.X",
"X.X.X.X.X X.X.X.X.X.X.X.X X.X.X.X.X.X.X.X X.X.X.X.X.X.X.X X.X.X.X.X.X.X.X X.X.X.X.X.X.X.X X.X.X.X.X.X.X.X X.X.X.X.X.X.X.X X.X.X.",
".X.X.X.X.X.X.X.X.X.X.X.X.X.X.X.X.X.X.X.X.X.X.X.X.X.X.X.X.X.X.X.X.X.X.X.X.X.X.X.X.X.X.X.X.X.X.X.X.X.X.X.X.X.X.X.X.X.X.X.X.X.X.X.X",
"X.X.X.X.X.X X.X.X.X.X.X.X.X X X.X.X.X.X.X.X X.X.X.X.X.X.X.X X X.X.X.X.X.X.X X.X.X.X.X.X.X.X X X.X.X.X.X.X.X X.X.X.X.X.X.X.X X X.",
".X.X.X.X.X X X.X.X.X.X.X.X X X X.X.X.X.X.X X X.X.X.X.X.X.X X X X.X.X.X.X.X X X.X.X.X.X.X.X X X X.X.X.X.X.X X X.X.X.X.X.X.X X X X",
"X.X.X.X.X.X X.X.X.X.X.X.X.X X X X.X.X.X.X.X X.X.X.X.X.X.X.X X X X.X.X.X.X.X X.X.X.X.X.X.X.X X X X.X.X.X.X.X X.X.X.X.X.X.X.X X X ",
".X.X.X.X.X.X.X.X.X.X.X.X.X X X X.X.X.X.X.X.X.X.X.X.X.X.X.X X X X.X.X.X.X.X.X.X.X.X.X.X.X.X X X X.X.X.X.X.X.X.X.X.X.X.X.X.X X X X",
"X.X.X.X.X.X.X.X.X.X.X.X.X X X.X.X.X.X.X.X.X.X.X.X.X.X.X.X X X.X.X.X.X.X.X.X.X.X.X.X.X.X.X X X.X.X.X.X.X.X.X.X.X.X.X.X.X.X X X.X.",
" X X X X X X X X X.X X X X X X X X X X X X X X X X.X X X X X X X X X X X X X X X X.X X X X X X X X X X X X X X X X.X X X X X X X",
"X X.X X X X X X X X.X X X X X X X X.X X X X X X X X.X X X X X X X X.X X X X X X X X.X X X X X X X X.X X X X X X X X.X X X X X X ",
" X X.X.X X X X X X.X.X.X X X X X X X.X.X X X X X X.X.X.X X X X X X X.X.X X X X X X.X.X.X X X X X X X.X.X X X X X X.X.X.X X X X X",
"X X X X X X X X X X X X X X X X X X X X X X X X X X X X X X X X X X X X X X X X X X X X X X X X X X X X X X X X X X X X X X X X ",
" X X X.X X X X X.X X X.X X X X X X X X.X X X X X.X X X.X X X X X X X X.X X X X X.X X X.X X X X X X X X.X X X X X.X X X.X X X X X",
"X.X X X X X X X X.X X X X X X X X.X X X X X X X X.X X X X X X X X.X X X X X X X X.X X X X X X X X.X X X X X X X X.X X X X X X X ",
".X.X X.X.X X.X.X.X.X X.X.X X.X.X.X.X X.X.X X.X.X.X.X X.X.X X.X.X.X.X X.X.X X.X.X.X.X X.X.X X.X.X.X.X X.X.X X.X.X.X.X X.X.X X.X.X",
"X.X X.X.X X.X.X.X.X X.X.X X X.X.X.X X.X.X X.X.X.X.X X.X.X X X.X.X.X X.X.X X.X.X.X.X X.X.X X X.X.X.X X.X.X X.X.X.X.X X.X.X X X.X.",
".X.X.X.X X X.X.X.X.X.X.X X X.X.X.X.X.X.X X X.X.X.X.X.X.X X X.X.X.X.X.X.X X X.X.X.X.X.X.X X X.X.X.X.X.X.X X X.X.X.X.X.X.X X X.X.X",
"X.X.X.X.X X.X.X.X.X.X.X.X X X.X.X.X.X.X.X X.X.X.X.X.X.X.X X X.X.X.X.X.X.X X.X.X.X.X.X.X.X X X.X.X.X.X.X.X X.X.X.X.X.X.X.X X X.X.",
".X.X.X.X.X.X.X.X.X.X X.X.X X.X.X.X.X.X.X.X.X.X.X.X.X X.X.X X.X.X.X.X.X.X.X.X.X.X.X.X X.X.X X.X.X.X.X.X.X.X.X.X.X.X.X X.X.X X.X.X",
"X.X.X.X X.X X.X.X.X.X.X.X.X X.X.X.X.X.X X.X X.X.X.X.X.X.X.X X.X.X.X.X.X X.X X.X.X.X.X.X.X.X X.X.X.X.X.X X.X X.X.X.X.X.X.X.X X.X.",
".X.X.X X.X X X.X.X.X X.X.X X X.X.X.X.X X.X X X.X.X.X X.X.X X X.X.X.X.X X.X X X.X.X.X X.X.X X X.X.X.X.X X.X X X.X.X.X X.X.X X X.X",
"X X.X.X X.X X.X.X.X X.X.X.X X X.X X.X.X X.X X.X.X.X X.X.X.X X X.X X.X.X X.X X.X.X.X X.X.X.X X X.X X.X.X X.X X.X.X.X X.X.X.X X X.",
" X.X.X.X X.X.X.X.X.X X X.X X X X X.X.X.X X.X.X.X.X.X X X.X X X X X.X.X.X X.X.X.X.X.X X X.X X X X X.X.X.X X.X.X.X.X.X X X.X X X X",
"X X.X X X X X.X.X X X X X.X X X.X X.X X X X X.X.X X X X X.X X X.X X.X X X X X.X.X X X X X.X X X.X X.X X X X X.X.X X X X X.X X X.",
" X X X X X X X X X.X X X.X.X X X X X X X X X X X X.X X X.X.X X X X X X X X X X X X.X X X.X.X X X X X X X X X X X X.X X X.X.X X X",
"X X.X X X X X X X X.X X X.X X X X X.X X X X X X X X.X X X.X X X X X.X X X X X X X X.X X X.X X X X X.X X X X X X X X.X X X.X X X ",
" X X.X.X X X X X X.X.X.X.X.X X X X X.X.X X X X X X.X.X.X.X.X X X X X.X.X X X X X X.X.X.X.X.X X X X X.X.X X X X X X.X.X.X.X.X X X",
"X X X X X X X X X X X X X X X X X X X X X X X X X X X X X X X X X X X X X X X X X X X X X X X X X X X X X X X X X X X X X X X X ",
" X X X.X X X X X X X X.X X X X X X X X.X X X X X X X X.X X X X X X X X.X X X X X X X X.X X X X X X X X.X X X X X X X X.X X X X X",
"X.X X X X X X X X X X X X X X X X.X X X X X X X X X X X X X X X X.X X X X X X X X X X X X X X X X.X X X X X X X X X X X X X X X ",
".X.X X.X.X X.X.X.X.X X.X.X X.X.X.X.X X.X.X X.X.X.X.X X.X.X X.X.X.X.X X.X.X X.X.X.X.X X.X.X X.X.X.X.X X.X.X X.X.X.X.X X.X.X X.X.X",
"X.X X.X.X X.X.X.X.X X.X.X X.X.X.X.X X.X.X X.X.X.X.X X.X.X X.X.X.X.X X.X.X X.X.X.X.X X.X.X X.X.X.X.X X.X.X X.X.X.X.X X.X.X X.X.X.",
".X.X.X.X X X.X.X.X.X.X.X X X.X.X.X.X.X.X X X.X.X.X.X.X.X X X.X.X.X.X.X.X X X.X.X.X.X.X.X X X.X.X.X.X.X.X X X.X.X.X.X.X.X X X.X.X",
"X.X.X.X.X X.X.X.X.X.X.X.X X.X.X.X.X.X.X.X X.X.X.X.X.X.X.X X.X.X.X.X.X.X.X X.X.X.X.X.X.X.X X.X.X.X.X.X.X.X X.X.X.X.X.X.X.X X.X.X.",
".X.X.X.X.X.X.X.X.X.X.X.X.X.X.X.X.X.X.X.X.X.X.X.X.X.X.X.X.X.X.X.X.X.X.X.X.X.X.X.X.X.X.X.X.X.X.X.X.X.X.X.X.X.X.X.X.X.X.X.X.X.X.X.X",
"X.X.X.X.X.X X.X.X.X.X.X.X.X X X.X.X.X.X.X.X X.X.X.X.X.X.X.X X X.X.X.X.X.X.X X.X.X.X.X.X.X.X X X.X.X.X.X.X.X X.X.X.X.X.X.X.X X X.",
".X.X.X.X.X X X.X.X.X.X.X.X X X X.X.X.X.X.X X X.X.X.X.X.X.X X X X.X.X.X.X.X X X.X.X.X.X.X.X X X X.X.X.X.X.X X X.X.X.X.X.X.X X X X",
"X.X.X.X.X.X X.X.X.X.X.X.X.X X X X.X.X.X.X.X X.X.X.X.X.X.X.X X X X.X.X.X.X.X X.X.X.X.X.X.X.X X X X.X.X.X.X.X X.X.X.X.X.X.X.X X X ",
".X.X.X.X.X.X.X.X.X.X.X.X.X X X X.X.X.X.X.X.X.X.X.X.X.X.X.X X X X.X.X.X.X.X.X.X.X.X.X.X.X.X X X X.X.X.X.X.X.X.X.X.X.X.X.X.X X X X",
"X.X.X.X.X.X.X.X.X.X.X.X.X X X.X.X.X.X.X.X.X.X.X.X.X.X.X.X X X.X.X.X.X.X.X.X.X.X.X.X.X.X.X X X.X.X.X.X.X.X.X.X.X.X.X.X.X.X X X.X.",
" X X X X X X X X X.X X X X X X X X X X X X X X X X.X X X X X X X X X X X X X X X X.X X X X X X X X X X X X X X X X.X X X X X X X",
"X X.X X X X X X X X.X X X X X X X X.X X X X X X X X.X X X X X X X X.X X X X X X X X.X X X X X X X X.X X X X X X X X.X X X X X X ",
" X X.X.X X X X X X.X.X.X X X X X X X.X.X X X X X X.X.X.X X X X X X X.X.X X X X X X.X.X.X X X X X X X.X.X X X X X X.X.X.X X X X X",
"X X X X X X X X X X X X X X X X X X X X X X X X X X X X X X X X X X X X X X X X X X X X X X X X X X X X X X X X X X X X X X X X ",
" X X X.X X X X X.X X X.X X X X X X X X.X X X X X.X X X.X X X X X X X X.X X X X X.X X X.X X X X X X X X.X X X X X.X X X.X X X X X",
"X.X X X X X X X X.X X X X X X X X.X X X X X X X X.X X X X X X X X.X X X X X X X X.X X X X X X X X.X X X X X X X X.X X X X X X X ",
".X.X X.X.X X.X.X.X.X X.X.X X.X.X.X.X X.X.X X.X.X.X.X X.X.X X.X.X.X.X X.X.X X.X.X.X.X X.X.X X.X.X.X.X X.X.X X.X.X.X.X X.X.X X.X.X",
"X.X X.X.X X.X.X.X.X X.X.X X X.X.X.X X.X.X X.X.X.X.X X.X.X X X.X.X.X X.X.X X.X.X.X.X X.X.X X X.X.X.X X.X.X X.X.X.X.X X.X.X X X.X.",
".X.X.X.X X X.X.X.X.X.X.X X X.X.X.X.X.X.X X X.X.X.X.X.X.X X X.X.X.X.X.X.X X X.X.X.X.X.X.X X X.X.X.X.X.X.X X X.X.X.X.X.X.X X X.X.X",
"X.X.X.X.X X.X.X.X.X.X.X.X X X.X.X.X.X.X.X X.X.X.X.X.X.X.X X X.X.X.X.X.X.X X.X.X.X.X.X.X.X X X.X.X.X.X.X.X X.X.X.X.X.X.X.X X X.X.",
".X.X.X.X.X.X.X.X.X.X X.X.X X.X.X.X.X.X.X.X.X.X.X.X.X X.X.X X.X.X.X.X.X.X.X.X.X.X.X.X X.X.X X.X.X.X.X.X.X.X.X.X.X.X.X X.X.X X.X.X",
"X.X.X.X X.X X.X.X.X.X.X.X.X X.X.X.X.X.X X.X X.X.X.X.X.X.X.X X.X.X.X.X.X X.X X.X.X.X.X.X.X.X X.X.X.X.X.X X.X X.X.X.X.X.X.X.X X.X.",
".X.X.X X.X X X.X.X.X X.X.X X X.X.X.X.X X.X X X.X.X.X X.X.X X X.X.X.X.X X.X X X.X.X.X X.X.X X X.X.X.X.X X.X X X.X.X.X X.X.X X X.X",
"X X.X.X X.X X.X.X.X X.X.X.X X X.X X.X.X X.X X.X.X.X X.X.X.X X X.X X.X.X X.X X.X.X.X X.X.X.X X X.X X.X.X X.X X.X.X.X X.X.X.X X X.",
" X.X.X.X X.X.X.X.X.X X X.X X X X X.X.X.X X.X.X.X.X.X X X.X X X X X.X.X.X X.X.X.X.X.X X X.X X X X X.X.X.X X.X.X.X.X.X X X.X X X X",
"X X.X X X X X.X.X X X X X.X X X.X X.X X X X X.X.X X X X X.X X X.X X.X X X X X.X.X X X X X.X X X.X X.X X X X X.X.X X X X X.X X X.",
" X X X X X X X X X.X X X.X.X X X X X X X X X X X X.X X X.X.X X X X X X X X X X X X.X X X.X.X X X X X X X X X X X X.X X X.X.X X X",
"X X.X X X X X X X X.X X X.X X X X X.X X X X X X X X.X X X.X X X X X.X X X X X X X X.X X X.X X X X X.X X X X X X X X.X X X.X X X ",
" X X.X.X X X X X X.X.X.X.X.X X X X X.X.X X X X X X.X.X.X.X.X X X X X.X.X X X X X X.X.X.X.X.X X X X X.X.X X X X X X.X.X.X.X.X X X",
"X X X X X X X X X X X X X X X X X X X X X X X X X X X X X X X X X X X X X X X X X X X X X X X X X X X X X X X X X X X X X X X X ",
" X X X.X X X X X X X X.X X X X X X X X.X X X X X X X X.X X X X X X X X.X X X X X X X X.X X X X X X X X.X X X X X X X X.X X X X X",
"X.X X X X X X X X X X X X X X X X.X X X X X X X X X X X X X X X X.X X X X X X X X X X X X X X X X.X X X X X X X X X X X X X X X ",
".X.X X.X.X X.X.X.X.X X.X.X X.X.X.X.X X.X.X X.X.X.X.X X.X.X X.X.X.X.X X.X.X X.X.X.X.X X.X.X X.X.X.X.X X.X.X X.X.X.X.X X.X.X X.X.X",
"X.X X.X.X X.X.X.X.X X.X.X X.X.X.X.X X.X.X X.X.X.X.X X.X.X X.X.X.X.X X.X.X X.X.X.X.X X.X.X X.X.X.X.X X.X.X X.X.X.X.X X.X.X X.X.X.",
".X.X.X.X X X.X.X.X.X.X.X X X.X.X.X.X.X.X X X.X.X.X.X.X.X X X.X.X.X.X.X.X X X.X.X.X.X.X.X X X.X.X.X.X.X.X X X.X.X.X.X.X.X X X.X.X",
"X.X.X.X.X X.X.X.X.X.X.X.X X.X.X.X.X.X.X.X X.X.X.X.X.X.X.X X.X.X.X.X.X.X.X X.X.X.X.X.X.X.X X.X.X.X.X.X.X.X X.X.X.X.X.X.X.X X.X.X.",
".X.X.X.X.X.X.X.X.X.X.X.X.X.X.X.X.X.X.X.X.X.X.X.X.X.X.X.X.X.X.X.X.X.X.X.X.X.X.X.X.X.X.X.X.X.X.X.X.X.X.X.X.X.X.X.X.X.X.X.X.X.X.X.X",
"X.X.X.X.X.X X.X.X.X.X.X.X.X X X.X.X.X.X.X.X X.X.X.X.X.X.X.X X X.X.X.X.X.X.X X.X.X.X.X.X.X.X X X.X.X.X.X.X.X X.X.X.X.X.X.X.X X X.",
".X.X.X.X.X X X.X.X.X.X.X.X X X X.X.X.X.X.X X X.X.X.X.X.X.X X X X.X.X.X.X.X X X.X.X.X.X.X.X X X X.X.X.X.X.X X X.X.X.X.X.X.X X X X",
"X.X.X.X.X.X X.X.X.X.X.X.X.X X X X.X.X.X.X.X X.X.X.X.X.X.X.X X X X.X.X.X.X.X X.X.X.X.X.X.X.X X X X.X.X.X.X.X X.X.X.X.X.X.X.X X X ",
".X.X.X.X.X.X.X.X.X.X.X.X.X X X X.X.X.X.X.X.X.X.X.X.X.X.X.X X X X.X.X.X.X.X.X.X.X.X.X.X.X.X X X X.X.X.X.X.X.X.X.X.X.X.X.X.X X X X",
"X.X.X.X.X.X.X.X.X.X.X.X.X X X.X.X.X.X.X.X.X.X.X.X.X.X.X.X X X.X.X.X.X.X.X.X.X.X.X.X.X.X.X X X.X.X.X.X.X.X.X.X.X.X.X.X.X.X X X.X."
};
