/* XPM */
static char *window_3[] = {
/* columns rows colors chars-per-pixel */
"32 32 25 1 ",
"  c #747474",
". c #7E7E7E",
"X c #838383",
"o c #868686",
"O c #898989",
"+ c gray56",
"@ c gray57",
"# c gray59",
"$ c #9A9A9A",
"% c gray61",
"& c gray64",
"* c #A5A5A5",
"= c gray67",
"- c #ACACAC",
"; c gray70",
": c #B4B4B4",
"> c #BBBBBB",
", c #BCBCBC",
"< c #C3C3C3",
"1 c gray77",
"2 c #C8C8C8",
"3 c gray81",
"4 c #D0D0D0",
"5 c #D5D5D5",
"6 c #D8D8D8",
/* pixels */
">>;:>>>>>>:>>>>;::>>>>::>>::;>:-",
":%**---;;;;;;;:---=;;;-:;;;:>;:-",
":*,1<11212<<1221<<111,,<<,,,1<>=",
";*14455544444453444433334<143<:*",
"-*1455554555554534344554233432:=",
":*,<35533353454443545535532441:*",
";*,135345344555655433555554551>*",
";*>143414445556564433435435541>&",
":=<215313345465645333254322451;*",
">=>33325244555555344223535334<;&",
">-<222335455544442<24332445532;$",
">-134245454544554452532455544<:&",
">-<445455455235545545544445442:%",
">-,343445643455644445554465532>$",
":-1533445445544552434255666453:%",
":-1225454253532543424434455432:%",
":-,334545455432354445544445541-#",
",;<333255544454255544535355431;#",
">-2233444554465<35343442345331:#",
"-;1524534455544341333443455322-#",
":;1345542454454343443353554532:#",
":-<334444545424445533254436431;#",
"::<444234354434455453324555442-#",
">:1242323545534454543334555551;+",
":;,442334556445345455543534232:+",
">-<252254544552423455544351331;O",
">-2432545543232444454531255342;o",
":;1334353232213443444543355552;o",
">:,243333333111432324533444541:o",
">:,1<,1<2111<21<<12122<<<22222-X",
":;-;>:;;;;;::;;*;-:::;=;;;;;;-=.",
";-&==**%$$$###@@++++O+Oo+OoXXoX "
};
