/* XPM */
static char *walltex[] = {
/* columns rows colors chars-per-pixel */
"32 32 133 2 ",
"   c #493C36",
".  c #484035",
"X  c #4D453B",
"o  c #4F423E",
"O  c #4A483E",
"+  c #4D4B3E",
"@  c #53413C",
"#  c #53433C",
"$  c #53473E",
"%  c #54443D",
"&  c #54473D",
"*  c #4E3E43",
"=  c #513E41",
"-  c #504246",
";  c #544544",
":  c #5A4645",
">  c #544E46",
",  c #5A4845",
"<  c #594B44",
"1  c #5B4B46",
"2  c #594E44",
"3  c #5C4E47",
"4  c #55454B",
"5  c #57424D",
"6  c #59464A",
"7  c #53494A",
"8  c #534B4A",
"9  c #564948",
"0  c #544D4B",
"q  c #574C4C",
"w  c #5B4B49",
"e  c #59484A",
"r  c #5A4A4B",
"t  c #5B4F48",
"y  c #5F4C4B",
"u  c #5B4D4E",
"i  c #4D5144",
"p  c #4E5146",
"a  c #545247",
"s  c #5C5147",
"d  c #5A5447",
"f  c #55504D",
"g  c #5B5148",
"h  c #5A524B",
"j  c #5B564E",
"k  c #555A4E",
"l  c #565D4C",
"z  c #5B594E",
"x  c #5B5C4E",
"c  c #584D54",
"v  c #5E4C56",
"b  c #5C4F56",
"n  c #575752",
"m  c #595051",
"M  c #5A5352",
"N  c #5F5252",
"B  c #5F5452",
"V  c #5C5653",
"C  c #5A5555",
"Z  c #5E5554",
"A  c #5C5950",
"S  c #5C5D52",
"D  c #5C5C53",
"F  c #5F5959",
"G  c #66564E",
"H  c #62584F",
"J  c #625B4F",
"K  c #65594C",
"L  c #604F57",
"P  c #635450",
"I  c #635750",
"U  c #655552",
"Y  c #645752",
"T  c #615154",
"R  c #635555",
"E  c #615457",
"W  c #665A50",
"Q  c #665C53",
"!  c #645855",
"~  c #645B55",
"^  c #645C54",
"/  c #6D5E57",
"(  c #67585A",
")  c #655F5B",
"_  c #6D5F5B",
"`  c #6A5B5F",
"'  c #6B5C5D",
"]  c #695F5D",
"[  c #606154",
"{  c #666055",
"}  c #666555",
"|  c #6C6456",
" . c #676259",
".. c #65635B",
"X. c #646759",
"o. c #61675F",
"O. c #6E6158",
"+. c #6D645A",
"@. c #6E635E",
"#. c #6D675C",
"$. c #706559",
"%. c #665460",
"&. c #675864",
"*. c #6B5F64",
"=. c #666760",
"-. c #6B6164",
";. c #6D6764",
":. c #6F6764",
">. c #6F6964",
",. c #706563",
"<. c #736463",
"1. c #726762",
"2. c #776B63",
"3. c #766E61",
"4. c #706E64",
"5. c #746768",
"6. c #746968",
"7. c #786E68",
"8. c #647064",
"9. c #6E736E",
"0. c #787068",
"q. c #727B6E",
"w. c #6C6D70",
"e. c #716674",
"r. c #756B70",
"t. c #726C72",
"y. c #766F75",
"u. c #796D76",
"i. c #757472",
"p. c #7E7576",
"a. c #797C72",
"s. c #7C7976",
"d. c #837E77",
/* pixels */
", , P @.@.@.@.@.` @.@.;.d...#.J #.#.3.K | 3.3.3.3.3.d.d.t d._ : ",
", , @.P @.P I @.@...J d.G @.#.#.#.#.i s G #.H @.#.> #.#.d.2.s.@.",
"......@.I I I P @.@.@.&.H < H #.#.#.i +.: #.#.< #.#.#.#.d.@.@...",
"@...P P @.@.I @.@.@.@.-.J H @.#.s #.@.....#.< < #.#.#.#.5.G Y ..",
"..........I I P @.@.@.q...H H #.< #.i #.#.i H #.> +.@.+.0.G G T ",
"@.P P P @.@.@.@.@.@.&.s.G < H #.H ..` i #.#.H > H J H +.5.*.G ..",
"@.` j @.@.@.@.x @.P @.S < : J J H ` ` #.i ) @.J J ..} @.6.;.@.@.",
"@.j @.z @.P P x @.x I s.P B x I G ) ..#.+.i p J #...@...p.` @.@.",
"@.@.P @.@.@.@.= x @.@.:.1.X.x B B x G ..G ..#.#.z ..X.K d.i.P >.",
"P @.x @.@.P @.@.j : v y.1., B @.x I P H #.#.H #.K x x ..d.>.M G ",
"<._ 2.Q { 2.[ 2.5.i.o.q.l | { 1.{ I J H #.#.#.H J x #.o.p.7.d.<.",
"d.d.t.d.u.@.u.0.p.d.8.<.o.#.X.@.} | #.I P H H _ X >.0.d.d._ 7.7.",
"7 > Y v v e 5 T I t 6 _ q.d.t.d.0.p.#.@.| ( <.K s.0.d.s.< B I ! ",
"Y Y Y P M v M Y ! P f G 0.>.R s > R ! s.s.a.a.a.s.a.s e P B T I ",
"> > > v . p T Y ! 0 0 T i.L r Q Q & $ e e Q ! d.d., @ ! c > A T ",
"P > > > . Y 5 p ! z 8 Y 0.K Q t Q ! $ $ u 8 <.$.p.I P ! , > > . ",
"0 a a a   p % Y ! I P l d.O.Y t Q % s % 4.6 ,.d.5.R T 1 Y Y %   ",
"%   % w R Y Y Y ! ! ! R 6.@.! I Q Q % 3 L t 4.7.G ! Y Y Y Y % % ",
"z % :   # G Y Y Y M & @ @.u Q Q s Q 3 3 g R t ,.| Y Y 1 R Y Y Y ",
"P P   % < H 1 Y Y Y I , 5.B P Q Q Q Q Q s s L Y O.! 1 1 6 R R U ",
"A & P @ & , Y 1 M , 3 , 0.R 3 Q Q <.s s t 3 s.s.a.k 3 6 Y 1 Y j ",
"A A ! ; ! , , t z Y , 3 d.3 3 ! Q Q Q < s Q 3 e.4.Y 6 z Y w Y j ",
"P A I I 4 I 1 M T Y w.t ;.@.s.Q Q Q ! s 3 s 3 7.d.<.! z h ,.A ,.",
"I L L P 8 % d.p.i.7.9.d.s d.#.Q Q S Y ! 3 d.d.d.d.7.7.! s ,.,.A ",
"` 0.d.r.7.7.7.! 4 v 4 R ^ d.a.0.` 7.d.d.,.d.I ! #.s I g 0.>.7.p.",
"u ! n Z n Z >   4 <   > a A 3.! ^ ^ u g g Q s t s s s ; : d.>.n ",
"- Z ; Z V 8 ;     * 7 o @ s a t t g ^ ^ Q Q Q Q < t ! Q @ d.<.- ",
"c V Z o Z Z Z Z * * 8 p - 7.a I t ! ^ ^ ^ Q Q s g Q $ $ s.7.q > ",
"b - E   - - 7 B * n + B d.5.V ^ ! ^ g ^ Q Q p O I ; ^ ^ ! ;.s F ",
"d.d.d.) 7.7.d.4.d.7.d...a.d.^ Q $ g g t g @ O O + ^ g Q ^ D 7.6.",
"2.2.2.*.$.#.2.2._ 3.d.a.0.d.d.Q I e S g g e Z + { $ S & @.>.d.;.",
": ' %.U G T G U P @.@.>.d.0.d.s.0.d.a.d.d.7...d.d.d.p.0.d.p.O.2."
};
