/* XPM */
static char *pot[] = {
/* columns rows colors chars-per-pixel */
"32 32 5 1 ",
"  c #663931",
". c #8F563B",
"X c #E88B5E",
"o c #D9A066",
"O c None",
/* pixels */
"OOOOOOOOOOOOOOOOOOOOOOOOOOOOOOOO",
"OOOOOOOOOOOOOOOOOOOOOOOOOOOOOOOO",
"OOOOOOOOOOOOOOOOOOOOOOOOOOOOOOOO",
"OOOOOOOOOOOOOOOOOOOOOOOOOOOOOOOO",
"OOOOOOOOOOOOOOOOOOOOOOOOOOOOOOOO",
"OOOOOOOOOOOOOOOOOOOOOOOOOOOOOOOO",
"OOOOOOOOOOOOOOOOOOOOOOOOOOOOOOOO",
"OOOOOOOOOOOOOOOOOOOOOOOOOOOOOOOO",
"OOOOOOOOOOOOOOOOOOOOOOOOOOOOOOOO",
"OOOOOOOOOOOOOOOOOOOOOOOOOOOOOOOO",
"OOOOOOOOOOOOOOOOOOOOOOOOOOOOOOOO",
"OOOOOOOOOOOOOOOOOOOOOOOOOOOOOOOO",
"OOOOOOOOOOOOOOOOOOOOOOOOOOOOOOOO",
"OOOOOOOOOOOOOOOOOOOOOOOOOOOOOOOO",
"OOOOOOOOOOOOOOOOOOOOOOOOOOOOOOOO",
"OOOOOOOOOOOOOOOOOOOOOOOOOOOOOOOO",
"OOOOOOOOOOOOOOOOOOOOOOOOOOOOOOOO",
"OOOOOOOOOOOOOOOOOOOOOOOOOOOOOOOO",
"OOOOOOOOOOOOO......OOOOOOOOOOOOO",
"OOOOOOOOOOOOOO....OOOOOOOOOOOOOO",
"OOOOOOOOOOOOOO....OOOOOOOOOOOOOO",
"OOOOOOOOOOOOO......OOOOOOOOOOOOO",
"OOOOOOOOOOOO........OOOOOOOOOOOO",
"OOOOOOOOOOOO........OOOOOOOOOOOO",
"OOOOOOOOOOO...oooo...OOOOOOOOOOO",
"OOOOOOOOOOOooooXoXoooOOOOOOOOOOO",
"OOOOOOOOOOOo oXXXX o OOOOOOOOOOO",
"OOOOOOOOOOO   X X    OOOOOOOOOOO",
"OOOOOOOOOOO...    ...OOOOOOOOOOO",
"OOOOOOOOOOOO........OOOOOOOOOOOO",
"OOOOOOOOOOOOO......OOOOOOOOOOOOO",
"OOOOOOOOOOOO........OOOOOOOOOOOO"
};
