/* XPM */
static char *torch_set_inter[] = {
/* columns rows colors chars-per-pixel */
"32 320 21 1 ",
"  c #AA382B",
". c #944B19",
"X c #AA5922",
"o c #AA602E",
"O c #DF7126",
"+ c #FF643C",
"@ c #FF7538",
"# c #FF5441",
"$ c #FF6842",
"% c #FF7C43",
"& c #FF8634",
"* c #AAA653",
"= c #FF9045",
"- c #FF8B55",
"; c #FFAC4C",
": c #FFB357",
"> c #FFC269",
", c #FFD264",
"< c #FFD66A",
"1 c #FFF97D",
"2 c None",
/* pixels */
"22222222222222222222222222222222",
"22222222222222222222222222222222",
"22222222222222222222222222222222",
"22222222222222222222222222222222",
"22222222222222222222222222222222",
"2222222222222222&#22222222222222",
"22222222222222222222222222222222",
"2222222222222222#222222222222222",
"222222222222222#2222222222222222",
"22222222222222##2222222222222222",
"22222222222222###222222222222222",
"222222222222222###22222222222222",
"2222222222222222####222222222222",
"22222222222222222####22222222222",
"22222222222&222=22###22222222222",
"222222222222222=22####2222222222",
"22222222222=222=222###2222222222",
"2222222222=2222=22####=222222222",
"222222222222222=22####2222222222",
"222222222222222==#####2222222222",
"222222222222222==####22=22222222",
"22222222222222##=###222222222222",
"22222222222222#==#12222222222222",
"2222222222=222#==#12222222222222",
"2222222222=111#==1122222=2222222",
"2222222222=1111===1#222==2222222",
"2222222222==111===1=====22222222",
"22222222222=111===1====222222222",
"22222222222=21=======22222222222",
"222222222222========222222222222",
"22222222222222=====2222222222222",
"222222222222222===22222222222222",
"22222222222222222222222222222222",
"22222222222222222222222222222222",
"22222222222222222222222222222222",
"22222222222222222222222222222222",
"22222222222222222222222222222222",
"2222222222222222X 22222222222222",
"22222222222222222222222222222222",
"2222222222222222 222222222222222",
"222222222222222 2222222222222222",
"22222222222222  2222222222222222",
"22222222222222   222222222222222",
"222222222222222   22222222222222",
"2222222222222222#   222222222222",
"22222222222222222##  22222222222",
"22222222222X222%22###22222222222",
"222222222222222%22####2222222222",
"22222222222:222o222#-#2222222222",
"2222222222o2222o22##--%222222222",
"222222222222222o22##--2222222222",
"222222222222222oo$##--2222222222",
"222222222222222o%$#--22%22222222",
"22222222222222 #%$--222222222222",
"22222222222222#%%$<2222222222222",
"2222222222o222#%%$<2222222222222",
"2222222222o*<>#%%<<22222o2222222",
"2222222222o*<<>%%%< 222oo2222222",
"2222222222oo<<>%%%<ooooo22222222",
"22222222222o<<>%%=<=%oo222222222",
"22222222222o2<%%%====22222222222",
"222222222222===%====222222222222",
"22222222222222=====2222222222222",
"222222222222222===22222222222222",
"22222222222222222222222222222222",
"22222222222222222222222222222222",
"22222222222222222222222222222222",
"22222222222222 22222222222222222",
"22222222222222222222222222222222",
"22222222222222 X2222222222222222",
"2222222222222 2 2222222222222222",
"222222222222  222222222222222222",
"22222222222   222222222222222222",
"22222222222  2222222222222222222",
"22222222222  2222222222222222222",
"22222222222  2*222222X2222222222",
"222222222222*** #222222222222222",
"222222222222***  ##2222X22222222",
"222222222222***$  ###22222222222",
"22222222222****$  #### 222222222",
"22222222222<***222 #>#  22222222",
"22222222222***222o##>>$ 22222222",
"22222222222**2222o##>>  22222222",
"22222222222*22222%##>>  22222222",
"22222222222*2222$%#>>* $22222222",
"2222222222222o2#$%>>**  22222222",
"2222222222222o#$$%:***  22222222",
"2222222222222 #$$%:   2222222222",
"222222222222:-#$$::2222222222222",
"222222222222::-$$$:2222222222222",
"222222222222::-$$$:2222222222222",
"222222222222::-$$=:=$22222222222",
"222222222222o:$$$====22222222222",
"222222222222===$====o22222222222",
"222222222222 o=====o 22222222222",
"2222222222222 o===o 222222222222",
"22222222222222222222222222222222",
"22222222222222222222222222222222",
"22222222222222222222222222222222",
"22222222222222#22222222222222222",
"22222222222222222222222222222222",
"22222222222222#&2222222222222222",
"2222222222222#2#2222222222222222",
"222222222222##222222222222222222",
"22222222222###222222222222222222",
"22222222222##2222222222222222222",
"22222222222##2222222222222222222",
"22222222222##21222222&2222222222",
"222222222222111##222222222222222",
"222222222222111####2222&22222222",
"222222222222111######22222222222",
"222222222221111########222222222",
"222222222221111222##1###22222222",
"22222222222111222=##11##22222222",
"22222222222112222=##11##22222222",
"22222222222122222=##11##22222222",
"2222222222212222#=#111##22222222",
"2222222222222=2##=1111##22222222",
"2222222222222=###==111##22222222",
"2222222222222####==###2222222222",
"222222222222=####==2222222222222",
"222222222222==####=2222222222222",
"222222222222==####=2222222222222",
"222222222222==###===#22222222222",
"222222222222==###====22222222222",
"222222222222===#=====22222222222",
"222222222222#=======#22222222222",
"2222222222222#=====#222222222222",
"22222222222222222222222222222222",
"22222222222222222222222222222222",
"22222222222222222222222222222222",
"22222222222222 22222222222222222",
"22222222222222222222222222222222",
"22222222222222-;2222222222222222",
"2222222222222 2-2222222222222222",
"222222222222  222222222222222222",
"22222222222   222222222222222222",
"22222222222  2222222222222222222",
"22222222222  2222222222222222222",
"22222222222+ 2*222222X2222222222",
"222222222222***##222222222222222",
"222222222222***####2222X22222222",
"222222222222***##### 22222222222",
"22222222222****#### $  222222222",
"22222222222****222# <   22222222",
"22222222222***222%##**  22222222",
"22222222222**2222%##>*  22222222",
"22222222222*22222%##>>  22222222",
"22222222222*2222 %#>>>  22222222",
"2222222222222o2$$%>>>>  22222222",
"2222222222222o$$$%%>>>$ 22222222",
"2222222222222 $$$%%###2222222222",
"222222222222o  $$%%2222222222222",
"222222222222oo $$#%2222222222222",
"222222222222o=#$$$%2222222222222",
"222222222222o=#$$=%%#22222222222",
"222222222222o=$$$=%%%22222222222",
"222222222222o==$=====22222222222",
"222222222222 o======$22222222222",
"2222222222222 o====$222222222222",
"22222222222222222222222222222222",
"22222222222222222222222222222222",
"22222222222222222222*22222222222",
"222222222222222 2222**2222222222",
"22222222222222 2222***2222222222",
"22222222222222>, 2****2222222222",
"22222222222222*>2 ****2222222222",
"22222222222222**2*****2222222222",
"2222222222X222*******22222222222",
"22222222222222****   22222222222",
"222222222222222****  22222222222",
"22222222222@2222*    22222222222",
"222222222222222##    22222222222",
"222222222222222#### .22222222222",
"222222222222222#####222222222222",
"222222222222222####2%22222222222",
"222222222222222   #2:22222222222",
"2222222222222222 $##222222222222",
"22222222222222222$##-22222222222",
"222222222222222o2$##--2222222222",
"22222222222222oo2$#---2222222222",
"22222222222222o%%$----2222222222",
"222222222222o2%%%$$---%222222222",
"22222222222222%%%$$###o222222222",
"222222222222222%%$$   o222222222",
"222222222222222%%#$  oo222222222",
"2222222222222=#%%%$  oo222222222",
"2222222222222=#%%=$$#o2222222222",
"2222222222222=%%%=$$$o2222222222",
"2222222222222==%=====o2222222222",
"22222222222222======%22222222222",
"222222222222222====%222222222222",
"22222222222222222222222222222222",
"22222222222222222222222222222222",
"22222222222222222222122222222222",
"222222222222222#2222112222222222",
"22222222222222#22221112222222222",
"2222222222222211#211112222222222",
"22222222222222112#11112222222222",
"22222222222222112111112222222222",
"2222222222&222111111122222222222",
"222222222222221111###22222222222",
"2222222222222221111##22222222222",
"22222222222&22221####22222222222",
"222222222222222######22222222222",
"222222222222222#####O22222222222",
"222222222222222#####222222222222",
"222222222222222####2=22222222222",
"222222222222222####2=22222222222",
"2222222222222222####222222222222",
"22222222222222222####22222222222",
"222222222222222=2#####2222222222",
"22222222222222==2#####2222222222",
"22222222222222===#####2222222222",
"222222222222=2===#####=222222222",
"22222222222222===#####=222222222",
"222222222222222==#####=222222222",
"222222222222222==####==222222222",
"2222222222222=#===###==222222222",
"2222222222222=#===###=2222222222",
"2222222222222=====###=2222222222",
"2222222222222=========2222222222",
"22222222222222=======22222222222",
"222222222222222=====222222222222",
"22222222222222222222222222222222",
"22222222222222222222222222222222",
"22222222222222222222*22222222222",
"222222222222222 2222**2222222222",
"22222222222222#2222***2222222222",
"22222222222222>* 2****2222222222",
"22222222222222>*2 ****2222222222",
"22222222222222>>2*****2222222222",
"2222222222X222*>>****22222222222",
"22222222222222*>>>   22222222222",
"222222222222222*>,>  22222222222",
"22222222222X2222*### 22222222222",
"222222222222222  # # 22222222222",
"222222222222222  $ #.22222222222",
"222222222222222 ## #222222222222",
"222222222222222####2o22222222222",
"222222222222222####2o22222222222",
"2222222222222222### 222222222222",
"22222222222222222#$  22222222222",
"222222222222222%2#$   2222222222",
"22222222222222%%2#$   2222222222",
"22222222222222%%%$$   2222222222",
"222222222222=2%%%$$#  o222222222",
"22222222222222%%%$$$# o222222222",
"222222222222222%%$$$# o222222222",
"222222222222222%%$$$#oo222222222",
"2222222222222=#%%=$$#=o222222222",
"2222222222222=#%==$$#=2222222222",
"2222222222222==%==$$$o2222222222",
"2222222222222========o2222222222",
"22222222222222======o22222222222",
"222222222222222====o222222222222",
"22222222222222222222222222222222",
"22222222222222222222222222222222",
"22222222222222*2**22222222222222",
"22222222222222*222*2222222222222",
"22222222222222#*2222222222222222",
"22222222222222-22222222222222222",
"22222222222222-22222222222222222",
"22222222222222--2222222222222222",
"222222222222222--222222222222222",
"222222222222222---22222222222222",
"2222222222222222-;-2222222222222",
"22222222222222222###222222222222",
"22222222222222222#2#222222222222",
"22222222222222222%2#222222222222",
"2222222222222o22##2#222222222222",
"222222222222222#### 222222222222",
"22222222222222o####2222222222222",
"22222222222222  ###2222222222222",
"22222222222222   #%2222222222222",
"2222222222222  $ #%2222222222222",
"2222222222222X$$ #%2222222222222",
"2222222222222X$$$%%2222222222222",
"222222222222= $$$%%#222222222222",
"222222222222o $$$%%%#22222222222",
"222222222222o  $$%%%#22222222222",
"222222222222oo $$%%%#22222222222",
"222222222222o=#$$=%%#=2222222222",
"222222222222o=#$==%%#=2222222222",
"222222222222o==$==%%%22222222222",
"2222222222222========22222222222",
"22222222222222======222222222222",
"222222222222222====2222222222222",
"22222222222222222222222222222222",
"22222222222222222222222222222222",
"22222222222222121122222222222222",
"22222222222222122212222222222222",
"22222222222222#12222222222222222",
"22222222222222#22222222222222222",
"22222222222222#22222222222222222",
"22222222222222##2222222222222222",
"222222222222222##222222222222222",
"222222222222222###22222222222222",
"2222222222222222#&#2222222222222",
"22222222222222222###222222222222",
"22222222222222222#2#222222222222",
"22222222222222222=2#222222222222",
"2222222222222=22##2#222222222222",
"222222222222222#####222222222222",
"22222222222222=####2222222222222",
"22222222222222#####2222222222222",
"22222222222222####=2222222222222",
"2222222222222#####=2222222222222",
"2222222222222&####=2222222222222",
"2222222222222&###==2222222222222",
"222222222222=####==#222222222222",
"222222222222=####===#22222222222",
"222222222222=####===#22222222222",
"222222222222==###===#22222222222",
"222222222222==###===#=2222222222",
"222222222222==##====#=2222222222",
"222222222222===#=====22222222222",
"2222222222222========22222222222",
"22222222222222======222222222222",
"222222222222222====2222222222222"
};
