/* XPM */
static char *torch_set[] = {
/* columns rows colors chars-per-pixel */
"128 32 7 1 ",
"  c #360606",
". c #553F3F",
"X c #FF3600",
"o c #FF8600",
"O c #FBF236",
"+ c #9B9B9B",
"@ c None",
/* pixels */
"@@@@@@@@@@@@@@@@@@@@@@@@@@@@@@@@@@@@@@@@@@@@@@@@@@@@@@@@@@@@@@@@@@@@@@@@@@@@@@@@@@@@@@@@@@@@@@@@@@@@@@@@@@@@@@@@@@@@@@@@@@@@@@@@",
"@@@@@@@@@@@@@@@@o@@@@@@@@@@@@@@@@@@@@@@@@@@@@@@@@@@@@@@@@@@@@@@@@@@@@@@@@@@@@o@@@@@@@@@@@@@@@@@@@@@@@@@@@@@@@@@@@@@@@@@@@@@@@@@@",
"@@@@@@@@@@@@@@@@@@@@@@@@@@@@@@@@@@@@@@@@@@@@@@@@@o@@@@@@@@@@@@@@@@@@@@@@@@@@@@@@@@@@@@@@@@@@@@@@@@@@@@@@@@@@@o@@@@@@@@@@@@@@@@@@",
"@@@@@@@@@@@@@@@@o@@@@@@@@@@@@@@@@@@@@@@@@@@@@@@@@o@@@@@@@@@@@@@@@@@@@@@@@@@@@o@@@o@@@@@@@@@@@@@@@@@@@@@@@@@@@@@@@@@@@@@@@@@@@@@@",
"@@@@@@@@@@@@@@@@o@@@@@@@@@@@@@@@@@@@@@@@@@@@@@@@o@@@@@@@@@@@@@@@@@@@@@@@@@o@@o@@@@@@@@@@@@@@@@@@@@@@@@@@@@@@@@@@@o@@@@@@@@@@@@@@",
"@@@@@@@@@@@@@@@@o@@@@@@@@@@@@@@@@@@@@@@@@@@@@@@oo@@@@@@@@@@@@@@@@@@@@@@@@@@@@o@@@@o@@@@@@@@@@@@@@@@@@@@@@@o@@@@@@@@o@@@@@@@@@@@@",
"@@@@@@@@@@@o@o@@o@@@o@@@@@@@@@@@@@@@@@@@@@@@@@@oo@@o@@@@@@@@@@@@@@@@@@@@@@@@@ooooooo@@@@@@@@@@@@@@@@@@@@@@@@@o@@@@o@o@@@@@@@@@@@",
"@@@@@@@@@@@@@o@@o@@@o@@@@@@@@@@@@@@@@@@@@@@o@o@ooo@o@@@@@@@@@@@@@@@@@@@@@@@@@@oooo@@o@@@@@@@@@@@@@@@@@@@@@@@@oo@@@o@@@@@@@@@@@@@",
"@@@@@@@@@@@@@o@@oo@@@@@@@@@@@@@@@@@@@@@@@@@@@ooooo@@@@@@@@@@@@@@@@@@@@@@@@@@@@@ooo@@@@@@@@@@@@@@@@@@@@@@@@@@@@oo@oo@@@@@@@@@@@@@",
"@@@@@@@@@@@@oo@@oo@@@@@@@@@@@@@@@@@@@@@@@@@@@oo@ooo@@@@@@@@@@@@@@@@@@@@@@@@@@@oooo@@@@@@@@@@@@@@@@@@@@@@@@@@@oooooo@@@@@@@@@@@@@",
"@@@@@@@@@@@@ooo@ooo@@@@@@@@@@@@@@@@@@@@@@@@@@oooooo@o@@@@@@@@@@@@@@@@@@@@@@@@ooooo@@@@@@@@@@@@@@@@@@@@@@@@@@@ooooo@@@@@@@@@@@@@@",
"@@@@@@@@@@@@oooooXo@@@@@@@@@@@@@@@@@@@@@@@@@ooooXooo@@@@@@@@@@@@@@@@@@@@@@@@ooXoooo@@@@@@@@@@@@@@@@@@@@@@@@@@ooXoo@o@@@@@@@@@@@@",
"@@@@@@@@@@@oooXooooo@@@@@@@@@@@@@@@@@@@@@@@@ooOXoXoo@@@@@@@@@@@@@@@@@@@@@@@oooooXOoo@@@@@@@@@@@@@@@@@@@@@@@@oooXOoo@@@@@@@@@@@@@",
"@@@@@@@@@@@ooXooOooo@@@@@@@@@@@@@@@@@@@@@@@@ooOOoooo@@@@@@@@@@@@@@@@@@@@@@@@oooOOXoo@@@@@@@@@@@@@@@@@@@@@@@oooOOooo@@@@@@@@@@@@@",
"@@@@@@@@@@@@ooOOOooo@@@@@@@@@@@@@@@@@@@@@@@@@ooOooo@@@@@@@@@@@@@@@@@@@@@@@@@@oooOoo@@@@@@@@@@@@@@@@@@@@@@@@@oooOXoo@@@@@@@@@@@@@",
"@@@@@@@@@@@@@ooOooo@@@@@@@@@@@@@@@@@@@@@@@@@@@oooo@@@@@@@@@@@@@@@@@@@@@@@@@@@@oooo@@@@@@@@@@@@@@@@@@@@@@@@@@@oooooo@@@@@@@@@@@@@",
"@@@@@@@@@@@@@@.oo.@@@@@@@@@@@@@@@@@@@@@@@@@@@@.oo.@@@@@@@@@@@@@@@@@@@@@@@@@@@@.oo.@@@@@@@@@@@@@@@@@@@@@@@@@@@@.oo.@@@@@@@@@@@@@@",
"@@@@@@@@@@@@@@+..+@@@@@@@@@@@@@@@@@@@@@@@@@@@@+..+@@@@@@@@@@@@@@@@@@@@@@@@@@@@+..+@@@@@@@@@@@@@@@@@@@@@@@@@@@@+..+@@@@@@@@@@@@@@",
"@@@@@@@@@@@@@@.++.@@@@@@@@@@@@@@@@@@@@@@@@@@@@.++.@@@@@@@@@@@@@@@@@@@@@@@@@@@@.++.@@@@@@@@@@@@@@@@@@@@@@@@@@@@.++.@@@@@@@@@@@@@@",
"@@@@@@@@@@@@@@ .. @@@@@@@@@@@@@@@@@@@@@@@@@@@@ .. @@@@@@@@@@@@@@@@@@@@@@@@@@@@ .. @@@@@@@@@@@@@@@@@@@@@@@@@@@@ .. @@@@@@@@@@@@@@",
"@@@@@@@@@@@@@@    @@@@@@@@@@@@@@@@@@@@@@@@@@@@    @@@@@@@@@@@@@@@@@@@@@@@@@@@@    @@@@@@@@@@@@@@@@@@@@@@@@@@@@    @@@@@@@@@@@@@@",
"@@@@@@@@@@@@@@    @@@@@@@@@@@@@@@@@@@@@@@@@@@@    @@@@@@@@@@@@@@@@@@@@@@@@@@@@    @@@@@@@@@@@@@@@@@@@@@@@@@@@@    @@@@@@@@@@@@@@",
"@@@@@@@@@@@@@@@  @@@@@@@@@@@@@@@@@@@@@@@@@@@@@@  @@@@@@@@@@@@@@@@@@@@@@@@@@@@@@  @@@@@@@@@@@@@@@@@@@@@@@@@@@@@@  @@@@@@@@@@@@@@@",
"@@@@@@@@@@@@@@@  @@@@@@@@@@@@@@@@@@@@@@@@@@@@@@  @@@@@@@@@@@@@@@@@@@@@@@@@@@@@@  @@@@@@@@@@@@@@@@@@@@@@@@@@@@@@  @@@@@@@@@@@@@@@",
"@@@@@@@@@@@@@@@@ @@@@@@@@@@@@@@@@@@@@@@@@@@@@@@@ @@@@@@@@@@@@@@@@@@@@@@@@@@@@@@@ @@@@@@@@@@@@@@@@@@@@@@@@@@@@@@@ @@@@@@@@@@@@@@@",
"@@@@@@@@@@@@@@@@@@@@@@@@@@@@@@@@@@@@@@@@@@@@@@@@@@@@@@@@@@@@@@@@@@@@@@@@@@@@@@@@@@@@@@@@@@@@@@@@@@@@@@@@@@@@@@@@@@@@@@@@@@@@@@@@",
"@@@@@@@@@@@@@@@@@@@@@@@@@@@@@@@@@@@@@@@@@@@@@@@@@@@@@@@@@@@@@@@@@@@@@@@@@@@@@@@@@@@@@@@@@@@@@@@@@@@@@@@@@@@@@@@@@@@@@@@@@@@@@@@@",
"@@@@@@@@@@@@@@@@@@@@@@@@@@@@@@@@@@@@@@@@@@@@@@@@@@@@@@@@@@@@@@@@@@@@@@@@@@@@@@@@@@@@@@@@@@@@@@@@@@@@@@@@@@@@@@@@@@@@@@@@@@@@@@@@",
"@@@@@@@@@@@@@@@@@@@@@@@@@@@@@@@@@@@@@@@@@@@@@@@@@@@@@@@@@@@@@@@@@@@@@@@@@@@@@@@@@@@@@@@@@@@@@@@@@@@@@@@@@@@@@@@@@@@@@@@@@@@@@@@@",
"@@@@@@@@@@@@@@@@@@@@@@@@@@@@@@@@@@@@@@@@@@@@@@@@@@@@@@@@@@@@@@@@@@@@@@@@@@@@@@@@@@@@@@@@@@@@@@@@@@@@@@@@@@@@@@@@@@@@@@@@@@@@@@@@",
"@@@@@@@@@@@@@@@@@@@@@@@@@@@@@@@@@@@@@@@@@@@@@@@@@@@@@@@@@@@@@@@@@@@@@@@@@@@@@@@@@@@@@@@@@@@@@@@@@@@@@@@@@@@@@@@@@@@@@@@@@@@@@@@@",
"@@@@@@@@@@@@@@@@@@@@@@@@@@@@@@@@@@@@@@@@@@@@@@@@@@@@@@@@@@@@@@@@@@@@@@@@@@@@@@@@@@@@@@@@@@@@@@@@@@@@@@@@@@@@@@@@@@@@@@@@@@@@@@@@"
};
