/* XPM */
static char *walltex[] = {
/* columns rows colors chars-per-pixel */
"32 32 36 1 ",
"  c #140C0D",
". c #0A0612",
"X c #0E0A15",
"o c #130D16",
"O c #180F17",
"+ c #140E19",
"@ c #180F19",
"# c #161014",
"$ c #1A1216",
"% c #161119",
"& c #1C141C",
"* c #1E181B",
"= c #23161C",
"- c #241A1E",
"; c #1E1621",
": c #1E1822",
"> c #241721",
", c #261B22",
"< c #281D23",
"1 c #2C1F28",
"2 c #2B2126",
"3 c #2D2328",
"4 c #2F282D",
"5 c #342526",
"6 c #352826",
"7 c #32272C",
"8 c #352B2C",
"9 c #3A2B2C",
"0 c #3C302F",
"q c #362A30",
"w c #3C2D31",
"e c #3D3132",
"r c #433336",
"t c #41343B",
"y c #44393B",
"u c #483C3D",
/* pixels */
"$@&;&;2212wuuq09225<222242uu6u0-",
">@2,;<,1<2<u9e2222*-22&22-20ur7%",
"%2<2<<<<111w9-2222-2-&*%2222u2X%",
"=;<,&<<1211e8-2*-2*222$-2252r&oX",
";22*&&,<2+2t0,&*&*%;2*-2-2*23&@+",
"1,<,>222+++y9-,*&2+%*:2-,&&%r;&+",
"2<,2122,%o*85-<&&+&%+*;,-2&-r3+;",
"2,2>2&$&&o&y9>,&&2;*+X%2-22&y11&",
"12&2&;+o&&wwe2&&&,&&+X%#2*2$ue22",
",&&;2o%+&51te-&&%&&&%XX*#**0ue,<",
"32;<2:&>7yey402-*&&#*&#%$*0eyru2",
"uuee84<8quee0002;*:,&&<$ eruu0tt",
">>,,,>>,<--wturu24*%#$##yruy-<<<",
"<,,<,,,<<,,<te<6>29yy7yyy7--<<><",
"---,=-,,<,><t2-21==>-<<u7-=<>-,<",
"<-*,&<>><,%,r<--,<=->>3e7<<<---&",
"---$=-=<<&$ou1&-2-$=3>3u3<>&<<==",
"==+&&-<<<,+&;=&&,&O$,-33<<&&&<==",
">==O=<<<<>o+&>&&o<$>-1>22&+o&--<",
"<,===-=<1&oo:1&+++<2>,<9&&o.@&<<",
",--$+@<&oXoor<&+o%$$>,7uy$.o@@=>",
"--&%&&o@o+o$u6-@+++$$2>te1@+&@&&",
"<&<&$&-&&+;7e9y2&&,&>,-rue<$$3,3",
"91><>8uy8t7y6u09<2,<-7uuuyt<6er8",
"9ryttw3<>,@&1uurw80e6u<-2-,-rrry",
"-1<,,<-&>@+@$-r92,>-$2-->--=-ue,",
"=,=<>->&+@$%%-5---&%&&22--2-@u2@",
",,&&<&,&++&$=8,,-&o+o1---2$O73&$",
">%&+$+$&+&28ee,,,&&o,2-*---$+w&&",
"uy2383e8w8e9yu22--&--**---$O&8y9",
"37311>332r7ueuu,&$&$$o&$*$&O9ruy",
"=11,$&$1&&tuuruue00e085e09yyuyy3"
};
