/* XPM */
static char *walltex[] = {
/* columns rows colors chars-per-pixel */
"32 32 98 2 ",
"   c #30170B",
".  c #311A0F",
"X  c #351A0E",
"o  c #281210",
"O  c #2A1411",
"+  c #2B1511",
"@  c #2E1512",
"#  c #2C1613",
"$  c #2F1614",
"%  c #2D1813",
"&  c #2F1914",
"*  c #311A13",
"=  c #351A12",
"-  c #341D12",
";  c #301814",
":  c #301815",
">  c #331916",
",  c #301A16",
"<  c #351A16",
"1  c #351B17",
"2  c #371E17",
"3  c #3A1E16",
"4  c #3D1F17",
"5  c #361C18",
"6  c #351E18",
"7  c #381F1A",
"8  c #381F1B",
"9  c #362015",
"0  c #372016",
"q  c #3A2117",
"w  c #37201A",
"e  c #39201B",
"r  c #3D2018",
"t  c #3F211A",
"y  c #3B241A",
"u  c #3D241B",
"i  c #3A201C",
"p  c #3F221C",
"a  c #3F251C",
"s  c #3F261C",
"d  c #40231B",
"f  c #40221F",
"g  c #40231F",
"h  c #41251D",
"j  c #42251C",
"k  c #40261C",
"l  c #45261E",
"z  c #42281E",
"x  c #452A1D",
"c  c #44281F",
"v  c #402520",
"b  c #432721",
"n  c #442720",
"m  c #412820",
"M  c #442821",
"N  c #442A21",
"B  c #462B21",
"V  c #462B23",
"C  c #472B23",
"Z  c #472F26",
"A  c #4C2A20",
"S  c #4A2E21",
"D  c #4D2E21",
"F  c #4B2E25",
"G  c #482E27",
"H  c #4F2F27",
"J  c #502F26",
"K  c #4B3222",
"L  c #4A3027",
"P  c #4D3024",
"I  c #4D3025",
"U  c #4D3226",
"Y  c #4C3227",
"T  c #4D3029",
"R  c #4F3329",
"E  c #513124",
"W  c #513226",
"Q  c #533426",
"!  c #533229",
"~  c #543329",
"^  c #503628",
"/  c #51362B",
"(  c #553528",
")  c #543629",
"_  c #54352A",
"`  c #51302C",
"'  c #55362C",
"]  c #503A2C",
"[  c #55392C",
"{  c #58382B",
"}  c #553532",
"|  c #553831",
" . c #573B31",
".. c #573A33",
"X. c #553C31",
"o. c #5B3C33",
"O. c #5A3D33",
"+. c #5C4034",
/* pixels */
"< < 2 e e e M M n n ' +.+./ / P B B B h c B B B B B +.+.D +._ d ",
"t < M h e h h M M m h O.E _ B M B z u u a M q m M u B ) +.[ G , ",
", m m M h h h h M M n ` E d d B B B y M d 8 w 3 B B M B +.M @ & ",
"e w h h e M h M M M n ' U j h i a m i z m z < d B m B m ' 6 $ # ",
"w m m w w 2 h h M , M X./ h 2 e 2 w , e M u j M h z e l C 7 7 @ ",
"M h h h e M M M , & , O.U t u w 2 h & 2 e e u h u 2 q , ' 7 3 , ",
"M b a M b b M a , @ 7 U c d a 2 2 , 7 , % e e u u M e q  .M , 7 ",
"n a M a M 2 2 2 7 * 3 o.E j a 2 6 m 7 e * % * z j z c e o.n M 8 ",
"M m 7 n e e , @ 2 4 ' ' ' m w 2 2 u 3 q % # , - u u z q +.X.h M ",
"h i 2 7 n , , , 2 x n ..[ y 6 e * 2 6 6 , # @ e * 9 7 / +._ h h ",
"M c e h z e e e U | / | K Q z t w w 3 & e e , , 9 9 Q ] o.{ O.M ",
"+.+.| / T S h G ! +.] ' Q / Q M w e e u 6 3 u - . ) [ +.+._ X.{ ",
"p t h b a 4 p v h t p ! X.+.} +.M G e 9 , - . X O.[ O.O.h h h h ",
"h h h h f v h h h h p h [ [ h D d h P O.O.Z O.o.O.Z d t h h h h ",
"u y u p 7 4 h h h a p h O.f a h h d q d t h h +.T p t a p t h h ",
"a t t y 3 h p 8 h a & h [ h h v h d d 3 t j M _ Z h a a t t d 6 ",
"t y t * q i 3 h h 6 3 $ o.l 6 h h q 3 4 b p b +.Z h h < h h 4 4 ",
"t t = 3 3 h h h h h & 6 i 7 7 6 l 7 : < n t M B h h 6 3 6 h 4 4 ",
"u q 4 : t j h h h f @ = i j 3 6 : h 3 h d h h M l 6 & & 6 h h h ",
"h h q 3 t h t h h 6 , & e h e @ ; , h h d v h J i 3 $ o < 6 h h ",
"h q l < < < h 6 , $ @ & { h 2 , , , < 3 t a G O. .6 O : $ < 3 a ",
"q u 3 , 6 2 @ < & & @ 1 o.D h & , ; % 2 6 h h } [ h < , 7 < 6 6 ",
"h 7 h 2 * 7 d 6 6 > 8 D _ _ o.h 3 e h 2 d a t [ o.' h 6 6 n h M ",
"J h h p d U o.O.T { L +.U +.' E h u h h t L +.+.+.[ { h D ' [ U ",
"_ { o.| { T Z h 4 b , 6 h o.+.[ ~ U R / G +.h h M h h j ) [ { o.",
"p h h h h m d 7 p 1 : < 3 h ) E h h u t 3 h u a h a u q h o._ h ",
"t b 6 h b 4 4 3 & > 3 < & h c h j t w , 2 w h h u t h t < o.M 6 ",
"v p 6 7 h 6 h 6 < & < * 4 F h z a 6 , & & h a j j h 3 % G C < 6 ",
"h , 6 2 : 7 < 7 < 6 M U / | j h h q , * h h q q c q z X , Q 7 3 ",
"+.O.m M F M / D / F / Q O.+.h z t t < a l 3 q t q e - , q U ) T ",
"M G M M z e M M n ' L +.) +.+.h 2 2 9 6 - , q - 3 - p * _ [ +.o.",
"d n M h 3 3 e h 6 i [ +.+.[ +.O.) _ U / / D x / / / o.{ o.o. .Z "
};
