/* XPM */
static char *walltex2[] = {
/* columns rows colors chars-per-pixel */
"32 32 104 2 ",
"   c #0A0612",
".  c #0E0914",
"X  c #0E0B15",
"o  c #120B17",
"O  c #100D16",
"+  c #120C16",
"@  c #120D17",
"#  c #140D17",
"$  c #180F17",
"%  c #120D18",
"&  c #140F19",
"*  c #180F19",
"=  c #151019",
"-  c #171219",
";  c #15101A",
":  c #1A1019",
">  c #181319",
",  c #1C131B",
"<  c #1B141B",
"1  c #1C141B",
"2  c #1B131C",
"3  c #1C131D",
"4  c #1B141D",
"5  c #1C171D",
"6  c #1F171D",
"7  c #1E161F",
"8  c #1F171F",
"9  c #23151B",
"0  c #21171B",
"q  c #23171C",
"w  c #25171E",
"e  c #21191C",
"r  c #211B1E",
"t  c #25181E",
"y  c #251A1E",
"u  c #261A1F",
"i  c #251C1F",
"p  c #1D1520",
"a  c #1F1821",
"s  c #241621",
"d  c #201820",
"f  c #241923",
"g  c #271B22",
"h  c #251C21",
"j  c #271D21",
"k  c #251E21",
"l  c #261A24",
"z  c #271C24",
"x  c #281C22",
"c  c #2A1F26",
"v  c #2A1E27",
"b  c #2C1F28",
"n  c #292023",
"m  c #2D2222",
"M  c #282025",
"N  c #282225",
"B  c #2B2026",
"V  c #2B2226",
"C  c #2E2427",
"Z  c #2C2128",
"A  c #2D2128",
"S  c #2E2429",
"D  c #2F242E",
"F  c #2F282D",
"G  c #322021",
"H  c #322726",
"J  c #352427",
"K  c #352826",
"L  c #352728",
"P  c #30262E",
"I  c #38252B",
"U  c #362A2A",
"Y  c #332C28",
"T  c #32292E",
"R  c #37282C",
"E  c #362C2C",
"W  c #3A2928",
"Q  c #392B2A",
"!  c #3B2B2A",
"~  c #3A2A2D",
"^  c #3D2E2D",
"/  c #3E2D2E",
"(  c #3A312F",
")  c #3F302F",
"_  c #3A2D30",
"`  c #3C2D30",
"'  c #3B2A34",
"]  c #3B3132",
"[  c #3E3130",
"{  c #3F3134",
"}  c #3A3534",
"|  c #3F3434",
" . c #3E3738",
".. c #433333",
"X. c #413236",
"o. c #433536",
"O. c #423339",
"+. c #40333A",
"@. c #43343C",
"#. c #403839",
"$. c #433B3A",
"%. c #45393C",
"&. c #46383C",
"*. c #483C3D",
/* pixels */
": : 7 7 7 7 c c c B / X.*._ ( Q B C C x M C C C C C *.*.K *...w ",
"t : B x 7 x x B B B x *.Q [ C B C M r t j Z < M C t B ( *...P & ",
"& M M M x x x x B B c ' Q t j B V V r M t e 0 < M C M C *.c . ; ",
"7 7 j g 0 B x B B B M X.Q j M d j Z e B B M : t C M C M X.1 ; . ",
"7 M z 7 p 1 j x B ; b +.^ n < 8 > 8 > 8 M e r C i M 7 c B 1 , # ",
"M x j x 7 B M c & & & %.E 0 i 5 < n ; ; p 0 n e i < 1 7 X.7 , & ",
"B c j M B B B x & . 7 E H w x 4 < ; 7 ; @ 8 8 k n B p B ..Z & s ",
"B x M x B 7 : 1 7 @ 1 &.Q x j < : M 7 7 ; X > k C n Z M %.c B 7 ",
"B M 7 c s 7 & o : p [ { { M 7 < < i < 7 ; . & ; n n M n *.&.j M ",
"x 7 : 7 M # & & : L L @.[ 0 2 7 < < < < ; X . e ; n j ( *.( g x ",
"B M d n n d 4 a X.+.{  .Y ^ M 0 4 < < @ 8 8 ; 1 i n ( | *.o.%.Z ",
"*.*.+.*.@.[ D o.%.*.} { ] ..( B 5 8 8 i < < x M 8 ( ..*.*.` o...",
"x e x g l s s l x t l /  .*.+.*.C P M B M c B W %.o.*.%.g l x x ",
"x x x x g l j x x x 0 x o.{ x H 0 M ~ $.%.D &.$.%.F w w g j l x ",
"e w e l 2 e g x x j p c +.x j c x 0 w x g j x %.T t 0 g j j x g ",
"c e x e 0 x s e x j : M o.x c w x c 0 0 w x Z [ T x g j w e t 4 ",
"t 0 6 > 0 e 0 x x 1 1 @ *.B 4 t c w $ w Z g Z *.Z j x : x x 0 0 ",
"0 0 $ < 3 x x x x x # 1 e 7 1 7 x , : 1 j g Z S x j 1 1 7 g 9 9 ",
"x 0 9 : 9 x x x x j o # p l 0 3 # x > t w j x Z c 1 & o * x x x ",
"x x 9 9 t x t j x 2 @ @ a x * & # ; x j x w x ~ 7 1 o   * , x x ",
"x q i ; # : j : & o @ o ..c , # # ; : < t i T %.&.* . @ & * , x ",
"i x 7 : 7 : @ : @ & @ * *.J w & < # @ < < x t +.| j * & 3 , 0 , ",
"g j x 1 : 7 w 3 7 & p H ( / &.x < 7 g : t t i ..*.[ x 2 : Z z M ",
"~ g g j d G *.%. ...X.*.Q *.( Q j i c j i T *.*.*.o.o.j K { { ~ ",
"_ ..%.+.o.S S x s x * 3 c *.*.o._ X.*.*.o.*.j n M x x w ..[ ..%.",
"t b g x j l t 1 w * # : : j o.^ x j j i : n t t t r x 0 t *.X.z ",
"0 z p c d g j , $ & : : ; t Y t x w < @ 4 7 j n x r M x ; *.Z : ",
"l z * e j 2 j : * ; : & 0 X.e x i 1 ; @ ; j n i t n e > T Z 2 : ",
"x # 7 # * & : x & 7 m R *.X.g x x 1 : & x M w 0 M e j z 4 ` < 4 ",
"*.*.T ` +.H *.X.*.X.*.( $.*.j c e j < t w 0 7 0 t j j c x E o.d ",
"Z S B b b d Z S M e T F S *.*.x c e j g t j c 0 j 0 x e / ..*.M ",
"w c c x , 1 , x < p ; ; z S *.$.o.*.$.*.%.o._ *.*.*.%...*.&.c P "
};
