/* XPM */
static char *wall_wolf_tex[] = {
/* columns rows colors chars-per-pixel */
"63 64 9 1 ",
"  c black",
". c #202020",
"X c #2C2C2C",
"o c gray22",
"O c #484848",
"+ c gray33",
"@ c #646464",
"# c gray44",
"$ c #7C7C7C",
/* pixels */
"XXXXXXXXXXXXXXXXXXXXXXXXXXXXXXXXXXXXXXXXXXXXXXXXXXXXXXXXXXXXXXX",
"XXXXXXXXXXXXXXXXXXXXXXXXXXXXXXXXXXXXXXXXXXXXXXXXXXXXXXXXXXXXXXX",
"X$$$$$$$$$$$$$$$$$$$$@X XX@$$$$$$$$#@o  XXX@$$$$@@OX.XXXXXXXXXX",
"X$$$$$$$$$$$$$$$$$$$$XX X@$$#########@o XX@$$$$$$$$$$$$$$$$$$+ ",
"X$$$O+@@@@@+@@O@O@@@OXX X$$#O@O@@@O@@o. .X$$#@O@O@$#$$$$$$$$+X ",
"X$$@@@oO@@+@+@@+@OoO@XX X$#O++@O@O@@O.. .X$$OO@OOOO@OOO@@OO@XX ",
"X#$O@O@o@O++OOo+O@O@OXX X$#@O@O@O@OO@.. .X$$@OOO+O@OO@OoO@OOXX ",
"X#$+@@O@OOO++Oo+@OOOOoX .$#O@@+OOOO@O.. .X$#@OOO+@OO+O@+@O@+XX ",
"XO$O+O@O@+@+@++OOO+O+oX .$#O@+OOoo@O+.. .X$#+OOO@OO+oo@++@o+XX ",
"XO$OO+OOOOOO+OO@O++O+OX .$#@+OOOooOOO.. .X$#OoO+@OOOoOO@O@O+XX ",
" X$@O+@@+O+@O+O++@O+OOX .$#OO@O+O++oO.. .X$#O+@OO@+OO@+O+++OXX ",
" X$O+O@OO+@OOOo+@O+OOOX .$#O@OoO@OOo@.. .X$#O@O@OOO+OO+OoooooX ",
" X$o@@O+O+@@+O+@OOO++OX .$#@O@O@OOO@O.. .X$#@OOooooooooXXXXXXX ",
" XoXXXXX.Xoo+@@O@O@@OoX  $#OOO+O@o@O+.. .X@@oXXXXXXXXXXX....   ",
"     ...XXXXXXXXXXXXXXX  $#OO@++@OO+O.. .X@OXX......           ",
"X                        $#@OOo+O@OOo.. .X                     ",
"X...                     $#O+O@++O+Oo.  .XXXXXXXXXXXXXXXXXXXXXX",
"XXXXXXXXXXXXXXXXXX       $#+Oo+OOoo+X.  .XXXXXO@$$$$$@+ XX     ",
".........XXO+#$$$$$$@    $#@O+O@Ooo+X.  .X +#$$$$$@@OOX XO@$$$$",
"$$$$$$$$$$$$$$$$$$$@X.   $#@+O@OOO+O..  .X+$#@O@O@OO@OX X@$$$$$",
"$$$$$$$$$$#$#@+@@+@OX.   $#O@+O@O@O@..  .X$$OO@OO+O+OOX X$$$@++",
"@OOO+@+O+O@@O+@+@@+@X.   $#++@oO+OOO..  .X$$O+@++OO@OOX X$$$O+O",
"OO+O+@@@@+OO@O+OO+OOX.   $#@@O@Ooo+O..  .X#$OO@OO+O+OOX X$$@OOO",
"+@@+@+@O+@@+OO+O@OO+X.   $#@O@OOooOO..  .X+$+OOO+O@O@+X  $$O+@@",
"@O+@O+OOO+@O@OOOO+O@X.  .$#OOOO+OOO@..  .XX$OOO++OOOOOX  $$@O+O",
"O@+O+O@+O@++@OOO@OO@X.  .$#O@ooOO@Oo..  .X $O+@OO@OO@+X  $$O@++",
"XXXoooOOOOOOOOOOOOOXX.  .$#@O@+oOOOO..  .X @O@OoXXXXXXX  $@oXXX",
"XXXXXXXXXXXXXXXXXXXXX.  .$#O@OOO@O@O..  .X OoXXXX....    @oXXXX",
".....................   .$#OO@+oOOO+..  .X                     ",
".                       .$#@@OO@O++O..  .X.                    ",
"XX.                    ..$#oO++O+++X.   .XX.................. .",
"XXXX                  XXX$#O@O+OOoX..  .XXXXO@$$$$$$$$$$$$$$@  ",
"XXX@#$$$$$$$$$$$$$$$@ .XX$#@O@+OoX..   .XXX@$$$$$$$$$$$$$$$@O  ",
"XX@$$$$$$$$$$$$$$$$@X .XX$#OoOOo...   .XXXO$$$@++++@+++@+@+O.  ",
"XX#$#@@@O@O@@O@O@+@oX .XX$#OO@@X..   XXXXX@$$O+@+O@OOO@+O+OX.  ",
"XX$$O@O@@@+@+O+@+O+X. .XX$#@OOO..  X+$$$XX$$@+O+@+OO+@O+@+OX.  ",
"XX$$@++++O@+O@OOO@OX. .XX$#O+OO.  X$$$$+.X$$O+O+O+OOO++@+@+X.  ",
"XX$$O++@O+OO+OOO@+OX. .XX$#@OoX.  +$O@@o.X$$O@++O@@+OOO++O+X.  ",
"XX$@O+@+OO+OOO+@+O+X. .XX$#O+o..  $@@++ . $$O+@++@+@++OO++@X.  ",
"XX@XXX+O++@+@+@+@OOX. .XX$#+OX.  O$@++O . $$@OOO++++@@@@+O@X.  ",
"X  ...X@@O+O+@+O+OoX. .XX$#+o..  $$+@OX . $$O@O+@@+O@O@+@@OX.  ",
"X.    .XXXXXXXXXXXXX. .XX#$o...  $O@++X . $$@@@+@+@@+@+@++OX.  ",
"XXXX.   ............. .XX$+...   $@++OX . $$O+O@O@++OO+O+O@X.  ",
"XXXXX.                .XX+X..   Xo@@O+X . $$OO+OOOOOOOO+OOXX.  ",
"XXXXXX.               .X.       X     X . $#+oXXXXXXXXXXXXXX   ",
"XXXXXXXXXXXXXXXXXXXXXXX.....  XXXX      . #+o..............    ",
"X+####@+OoXXXXXXXXXX..............XX    .                      ",
"X#$$$$$$$$$$@+OoXXX.@###########@OX   ...                      ",
"X#$$$$$$$$$$$$$@X X.#$$$$$$$$$$$$$$$@+X   XX                  X",
"X#$$+OOOO@@+O@O.X X.#$@@O@@+O+@O@O@#$$$#O  .XXXX      X        ",
"X#$+OO+@@@+OOOO.X X.#$+@@O@O@@O@OOOO@O@#$@  .XXo@@@@@@@@@@@@@@o",
"X#$O+@OOO+OO@OO.X X.#$O+O@O@OOOOo+O@@OOOO+X .Xo@$$$$$$$$$$$$$$X",
"X#$@O@@O@+O@O+oX  X.#$OO@OOOO+OO@@@oO@OO+XX .X@$$@O@OOO@@OO@OOX",
"X#$@@+O+OOOO@OXX  X.#$OO+OOOO+OO@+O@@@+++XX .X@$$O@OOOO@O@OO@OX",
"X#$O+O@O@O@O+OXX  XX#$@OoO+O+oo++@+@@O@OXXX .X@$O@O@O@+OO@O+O@X",
"X#$@O+OOO+O@O+.X  X+$@oOO@+OOooO+O@O++@OXX. .X@$O+O@+OOO+O@O@OX",
"X#$O@O+OOOOO@O.X  X@$@O+@OO@OO@+O@+@O@O@XX. .X@$OOO+++O@O+O++.X",
"X#$OO+OOOOOOOOXX   $$@O@O@OO+OO++O+O@O+OXX. .X@ooooooooooooooXX",
"X#$@OOOOO@O+O@X.   $@XXXXXXXXXXXXXXXXXXXXX  XXo................",
"X##OOO@O+O@@O.X.   @X.....................  X                  ",
"X+#XXXXXXXXXXXX. X                          X                  ",
"XX+............  X                         .X.                 ",
"X                X..........................XXX................",
"ooooooooooooooooooooooooooooooooooooooooooooooooooooooooooooooo"
};
